<?xml version="1.0" encoding="utf-8" standalone="no"?>
<!DOCTYPE svg PUBLIC "-//W3C//DTD SVG 1.1//EN"
  "http://www.w3.org/Graphics/SVG/1.1/DTD/svg11.dtd">
<svg xmlns:xlink="http://www.w3.org/1999/xlink" width="1072.941562pt" height="351.872344pt" viewBox="0 0 1072.941562 351.872344" xmlns="http://www.w3.org/2000/svg" version="1.1">
 <metadata>
  <rdf:RDF xmlns:dc="http://purl.org/dc/elements/1.1/" xmlns:cc="http://creativecommons.org/ns#" xmlns:rdf="http://www.w3.org/1999/02/22-rdf-syntax-ns#">
   <cc:Work>
    <dc:type rdf:resource="http://purl.org/dc/dcmitype/StillImage"/>
    <dc:date>2025-07-21T10:22:49.819323</dc:date>
    <dc:format>image/svg+xml</dc:format>
    <dc:creator>
     <cc:Agent>
      <dc:title>Matplotlib v3.9.4, https://matplotlib.org/</dc:title>
     </cc:Agent>
    </dc:creator>
   </cc:Work>
  </rdf:RDF>
 </metadata>
 <defs>
  <style type="text/css">*{stroke-linejoin: round; stroke-linecap: butt}</style>
 </defs>
 <g id="figure_1">
  <g id="patch_1">
   <path d="M 0 351.872344 
L 1072.941562 351.872344 
L 1072.941562 0 
L 0 0 
z
" style="fill: #ffffff"/>
  </g>
  <g id="axes_1">
   <g id="patch_2">
    <path d="M 45.071563 314.333125 
L 519.801563 314.333125 
L 519.801563 21.789375 
L 45.071563 21.789375 
L 45.071563 314.333125 
z
" style="fill: none"/>
   </g>
   <g id="matplotlib.axis_1">
    <g id="xtick_1">
     <g id="line2d_1">
      <path d="M 66.650199 314.333125 
L 66.650199 21.789375 
" clip-path="url(#pc6fd5c666d)" style="fill: none; stroke: #808080; stroke-opacity: 0.3; stroke-linecap: round"/>
     </g>
     <g id="line2d_2"/>
     <g id="text_1">
      <!-- 2 -->
      <g style="fill: #262626" transform="translate(63.86973 328.490938) scale(0.1 -0.1)">
       <defs>
        <path id="ArialMT-32" d="M 3222 541 
L 3222 0 
L 194 0 
Q 188 203 259 391 
Q 375 700 629 1000 
Q 884 1300 1366 1694 
Q 2113 2306 2375 2664 
Q 2638 3022 2638 3341 
Q 2638 3675 2398 3904 
Q 2159 4134 1775 4134 
Q 1369 4134 1125 3890 
Q 881 3647 878 3216 
L 300 3275 
Q 359 3922 746 4261 
Q 1134 4600 1788 4600 
Q 2447 4600 2831 4234 
Q 3216 3869 3216 3328 
Q 3216 3053 3103 2787 
Q 2991 2522 2730 2228 
Q 2469 1934 1863 1422 
Q 1356 997 1212 845 
Q 1069 694 975 541 
L 3222 541 
z
" transform="scale(0.015625)"/>
       </defs>
       <use xlink:href="#ArialMT-32"/>
      </g>
     </g>
    </g>
    <g id="xtick_2">
     <g id="line2d_3">
      <path d="M 133.046003 314.333125 
L 133.046003 21.789375 
" clip-path="url(#pc6fd5c666d)" style="fill: none; stroke: #808080; stroke-opacity: 0.3; stroke-linecap: round"/>
     </g>
     <g id="line2d_4"/>
     <g id="text_2">
      <!-- 4 -->
      <g style="fill: #262626" transform="translate(130.265534 328.490938) scale(0.1 -0.1)">
       <defs>
        <path id="ArialMT-34" d="M 2069 0 
L 2069 1097 
L 81 1097 
L 81 1613 
L 2172 4581 
L 2631 4581 
L 2631 1613 
L 3250 1613 
L 3250 1097 
L 2631 1097 
L 2631 0 
L 2069 0 
z
M 2069 1613 
L 2069 3678 
L 634 1613 
L 2069 1613 
z
" transform="scale(0.015625)"/>
       </defs>
       <use xlink:href="#ArialMT-34"/>
      </g>
     </g>
    </g>
    <g id="xtick_3">
     <g id="line2d_5">
      <path d="M 199.441807 314.333125 
L 199.441807 21.789375 
" clip-path="url(#pc6fd5c666d)" style="fill: none; stroke: #808080; stroke-opacity: 0.3; stroke-linecap: round"/>
     </g>
     <g id="line2d_6"/>
     <g id="text_3">
      <!-- 6 -->
      <g style="fill: #262626" transform="translate(196.661339 328.490938) scale(0.1 -0.1)">
       <defs>
        <path id="ArialMT-36" d="M 3184 3459 
L 2625 3416 
Q 2550 3747 2413 3897 
Q 2184 4138 1850 4138 
Q 1581 4138 1378 3988 
Q 1113 3794 959 3422 
Q 806 3050 800 2363 
Q 1003 2672 1297 2822 
Q 1591 2972 1913 2972 
Q 2475 2972 2870 2558 
Q 3266 2144 3266 1488 
Q 3266 1056 3080 686 
Q 2894 316 2569 119 
Q 2244 -78 1831 -78 
Q 1128 -78 684 439 
Q 241 956 241 2144 
Q 241 3472 731 4075 
Q 1159 4600 1884 4600 
Q 2425 4600 2770 4297 
Q 3116 3994 3184 3459 
z
M 888 1484 
Q 888 1194 1011 928 
Q 1134 663 1356 523 
Q 1578 384 1822 384 
Q 2178 384 2434 671 
Q 2691 959 2691 1453 
Q 2691 1928 2437 2201 
Q 2184 2475 1800 2475 
Q 1419 2475 1153 2201 
Q 888 1928 888 1484 
z
" transform="scale(0.015625)"/>
       </defs>
       <use xlink:href="#ArialMT-36"/>
      </g>
     </g>
    </g>
    <g id="xtick_4">
     <g id="line2d_7">
      <path d="M 265.837611 314.333125 
L 265.837611 21.789375 
" clip-path="url(#pc6fd5c666d)" style="fill: none; stroke: #808080; stroke-opacity: 0.3; stroke-linecap: round"/>
     </g>
     <g id="line2d_8"/>
     <g id="text_4">
      <!-- 8 -->
      <g style="fill: #262626" transform="translate(263.057143 328.490938) scale(0.1 -0.1)">
       <defs>
        <path id="ArialMT-38" d="M 1131 2484 
Q 781 2613 612 2850 
Q 444 3088 444 3419 
Q 444 3919 803 4259 
Q 1163 4600 1759 4600 
Q 2359 4600 2725 4251 
Q 3091 3903 3091 3403 
Q 3091 3084 2923 2848 
Q 2756 2613 2416 2484 
Q 2838 2347 3058 2040 
Q 3278 1734 3278 1309 
Q 3278 722 2862 322 
Q 2447 -78 1769 -78 
Q 1091 -78 675 323 
Q 259 725 259 1325 
Q 259 1772 486 2073 
Q 713 2375 1131 2484 
z
M 1019 3438 
Q 1019 3113 1228 2906 
Q 1438 2700 1772 2700 
Q 2097 2700 2305 2904 
Q 2513 3109 2513 3406 
Q 2513 3716 2298 3927 
Q 2084 4138 1766 4138 
Q 1444 4138 1231 3931 
Q 1019 3725 1019 3438 
z
M 838 1322 
Q 838 1081 952 856 
Q 1066 631 1291 507 
Q 1516 384 1775 384 
Q 2178 384 2440 643 
Q 2703 903 2703 1303 
Q 2703 1709 2433 1975 
Q 2163 2241 1756 2241 
Q 1359 2241 1098 1978 
Q 838 1716 838 1322 
z
" transform="scale(0.015625)"/>
       </defs>
       <use xlink:href="#ArialMT-38"/>
      </g>
     </g>
    </g>
    <g id="xtick_5">
     <g id="line2d_9">
      <path d="M 332.233416 314.333125 
L 332.233416 21.789375 
" clip-path="url(#pc6fd5c666d)" style="fill: none; stroke: #808080; stroke-opacity: 0.3; stroke-linecap: round"/>
     </g>
     <g id="line2d_10"/>
     <g id="text_5">
      <!-- 10 -->
      <g style="fill: #262626" transform="translate(326.672478 328.490938) scale(0.1 -0.1)">
       <defs>
        <path id="ArialMT-31" d="M 2384 0 
L 1822 0 
L 1822 3584 
Q 1619 3391 1289 3197 
Q 959 3003 697 2906 
L 697 3450 
Q 1169 3672 1522 3987 
Q 1875 4303 2022 4600 
L 2384 4600 
L 2384 0 
z
" transform="scale(0.015625)"/>
        <path id="ArialMT-30" d="M 266 2259 
Q 266 3072 433 3567 
Q 600 4063 929 4331 
Q 1259 4600 1759 4600 
Q 2128 4600 2406 4451 
Q 2684 4303 2865 4023 
Q 3047 3744 3150 3342 
Q 3253 2941 3253 2259 
Q 3253 1453 3087 958 
Q 2922 463 2592 192 
Q 2263 -78 1759 -78 
Q 1097 -78 719 397 
Q 266 969 266 2259 
z
M 844 2259 
Q 844 1131 1108 757 
Q 1372 384 1759 384 
Q 2147 384 2411 759 
Q 2675 1134 2675 2259 
Q 2675 3391 2411 3762 
Q 2147 4134 1753 4134 
Q 1366 4134 1134 3806 
Q 844 3388 844 2259 
z
" transform="scale(0.015625)"/>
       </defs>
       <use xlink:href="#ArialMT-31"/>
       <use xlink:href="#ArialMT-30" x="55.615234"/>
      </g>
     </g>
    </g>
    <g id="xtick_6">
     <g id="line2d_11">
      <path d="M 398.62922 314.333125 
L 398.62922 21.789375 
" clip-path="url(#pc6fd5c666d)" style="fill: none; stroke: #808080; stroke-opacity: 0.3; stroke-linecap: round"/>
     </g>
     <g id="line2d_12"/>
     <g id="text_6">
      <!-- 12 -->
      <g style="fill: #262626" transform="translate(393.068282 328.490938) scale(0.1 -0.1)">
       <use xlink:href="#ArialMT-31"/>
       <use xlink:href="#ArialMT-32" x="55.615234"/>
      </g>
     </g>
    </g>
    <g id="xtick_7">
     <g id="line2d_13">
      <path d="M 465.025024 314.333125 
L 465.025024 21.789375 
" clip-path="url(#pc6fd5c666d)" style="fill: none; stroke: #808080; stroke-opacity: 0.3; stroke-linecap: round"/>
     </g>
     <g id="line2d_14"/>
     <g id="text_7">
      <!-- 14 -->
      <g style="fill: #262626" transform="translate(459.464087 328.490938) scale(0.1 -0.1)">
       <use xlink:href="#ArialMT-31"/>
       <use xlink:href="#ArialMT-34" x="55.615234"/>
      </g>
     </g>
    </g>
    <g id="text_8">
     <!-- Number of Topics -->
     <g style="fill: #262626" transform="translate(239.743672 342.486094) scale(0.11 -0.11)">
      <defs>
       <path id="ArialMT-4e" d="M 488 0 
L 488 4581 
L 1109 4581 
L 3516 984 
L 3516 4581 
L 4097 4581 
L 4097 0 
L 3475 0 
L 1069 3600 
L 1069 0 
L 488 0 
z
" transform="scale(0.015625)"/>
       <path id="ArialMT-75" d="M 2597 0 
L 2597 488 
Q 2209 -75 1544 -75 
Q 1250 -75 995 37 
Q 741 150 617 320 
Q 494 491 444 738 
Q 409 903 409 1263 
L 409 3319 
L 972 3319 
L 972 1478 
Q 972 1038 1006 884 
Q 1059 663 1231 536 
Q 1403 409 1656 409 
Q 1909 409 2131 539 
Q 2353 669 2445 892 
Q 2538 1116 2538 1541 
L 2538 3319 
L 3100 3319 
L 3100 0 
L 2597 0 
z
" transform="scale(0.015625)"/>
       <path id="ArialMT-6d" d="M 422 0 
L 422 3319 
L 925 3319 
L 925 2853 
Q 1081 3097 1340 3245 
Q 1600 3394 1931 3394 
Q 2300 3394 2536 3241 
Q 2772 3088 2869 2813 
Q 3263 3394 3894 3394 
Q 4388 3394 4653 3120 
Q 4919 2847 4919 2278 
L 4919 0 
L 4359 0 
L 4359 2091 
Q 4359 2428 4304 2576 
Q 4250 2725 4106 2815 
Q 3963 2906 3769 2906 
Q 3419 2906 3187 2673 
Q 2956 2441 2956 1928 
L 2956 0 
L 2394 0 
L 2394 2156 
Q 2394 2531 2256 2718 
Q 2119 2906 1806 2906 
Q 1569 2906 1367 2781 
Q 1166 2656 1075 2415 
Q 984 2175 984 1722 
L 984 0 
L 422 0 
z
" transform="scale(0.015625)"/>
       <path id="ArialMT-62" d="M 941 0 
L 419 0 
L 419 4581 
L 981 4581 
L 981 2947 
Q 1338 3394 1891 3394 
Q 2197 3394 2470 3270 
Q 2744 3147 2920 2923 
Q 3097 2700 3197 2384 
Q 3297 2069 3297 1709 
Q 3297 856 2875 390 
Q 2453 -75 1863 -75 
Q 1275 -75 941 416 
L 941 0 
z
M 934 1684 
Q 934 1088 1097 822 
Q 1363 388 1816 388 
Q 2184 388 2453 708 
Q 2722 1028 2722 1663 
Q 2722 2313 2464 2622 
Q 2206 2931 1841 2931 
Q 1472 2931 1203 2611 
Q 934 2291 934 1684 
z
" transform="scale(0.015625)"/>
       <path id="ArialMT-65" d="M 2694 1069 
L 3275 997 
Q 3138 488 2766 206 
Q 2394 -75 1816 -75 
Q 1088 -75 661 373 
Q 234 822 234 1631 
Q 234 2469 665 2931 
Q 1097 3394 1784 3394 
Q 2450 3394 2872 2941 
Q 3294 2488 3294 1666 
Q 3294 1616 3291 1516 
L 816 1516 
Q 847 969 1125 678 
Q 1403 388 1819 388 
Q 2128 388 2347 550 
Q 2566 713 2694 1069 
z
M 847 1978 
L 2700 1978 
Q 2663 2397 2488 2606 
Q 2219 2931 1791 2931 
Q 1403 2931 1139 2672 
Q 875 2413 847 1978 
z
" transform="scale(0.015625)"/>
       <path id="ArialMT-72" d="M 416 0 
L 416 3319 
L 922 3319 
L 922 2816 
Q 1116 3169 1280 3281 
Q 1444 3394 1641 3394 
Q 1925 3394 2219 3213 
L 2025 2691 
Q 1819 2813 1613 2813 
Q 1428 2813 1281 2702 
Q 1134 2591 1072 2394 
Q 978 2094 978 1738 
L 978 0 
L 416 0 
z
" transform="scale(0.015625)"/>
       <path id="ArialMT-20" transform="scale(0.015625)"/>
       <path id="ArialMT-6f" d="M 213 1659 
Q 213 2581 725 3025 
Q 1153 3394 1769 3394 
Q 2453 3394 2887 2945 
Q 3322 2497 3322 1706 
Q 3322 1066 3130 698 
Q 2938 331 2570 128 
Q 2203 -75 1769 -75 
Q 1072 -75 642 372 
Q 213 819 213 1659 
z
M 791 1659 
Q 791 1022 1069 705 
Q 1347 388 1769 388 
Q 2188 388 2466 706 
Q 2744 1025 2744 1678 
Q 2744 2294 2464 2611 
Q 2184 2928 1769 2928 
Q 1347 2928 1069 2612 
Q 791 2297 791 1659 
z
" transform="scale(0.015625)"/>
       <path id="ArialMT-66" d="M 556 0 
L 556 2881 
L 59 2881 
L 59 3319 
L 556 3319 
L 556 3672 
Q 556 4006 616 4169 
Q 697 4388 901 4523 
Q 1106 4659 1475 4659 
Q 1713 4659 2000 4603 
L 1916 4113 
Q 1741 4144 1584 4144 
Q 1328 4144 1222 4034 
Q 1116 3925 1116 3625 
L 1116 3319 
L 1763 3319 
L 1763 2881 
L 1116 2881 
L 1116 0 
L 556 0 
z
" transform="scale(0.015625)"/>
       <path id="ArialMT-54" d="M 1659 0 
L 1659 4041 
L 150 4041 
L 150 4581 
L 3781 4581 
L 3781 4041 
L 2266 4041 
L 2266 0 
L 1659 0 
z
" transform="scale(0.015625)"/>
       <path id="ArialMT-70" d="M 422 -1272 
L 422 3319 
L 934 3319 
L 934 2888 
Q 1116 3141 1344 3267 
Q 1572 3394 1897 3394 
Q 2322 3394 2647 3175 
Q 2972 2956 3137 2557 
Q 3303 2159 3303 1684 
Q 3303 1175 3120 767 
Q 2938 359 2589 142 
Q 2241 -75 1856 -75 
Q 1575 -75 1351 44 
Q 1128 163 984 344 
L 984 -1272 
L 422 -1272 
z
M 931 1641 
Q 931 1000 1190 694 
Q 1450 388 1819 388 
Q 2194 388 2461 705 
Q 2728 1022 2728 1688 
Q 2728 2322 2467 2637 
Q 2206 2953 1844 2953 
Q 1484 2953 1207 2617 
Q 931 2281 931 1641 
z
" transform="scale(0.015625)"/>
       <path id="ArialMT-69" d="M 425 3934 
L 425 4581 
L 988 4581 
L 988 3934 
L 425 3934 
z
M 425 0 
L 425 3319 
L 988 3319 
L 988 0 
L 425 0 
z
" transform="scale(0.015625)"/>
       <path id="ArialMT-63" d="M 2588 1216 
L 3141 1144 
Q 3050 572 2676 248 
Q 2303 -75 1759 -75 
Q 1078 -75 664 370 
Q 250 816 250 1647 
Q 250 2184 428 2587 
Q 606 2991 970 3192 
Q 1334 3394 1763 3394 
Q 2303 3394 2647 3120 
Q 2991 2847 3088 2344 
L 2541 2259 
Q 2463 2594 2264 2762 
Q 2066 2931 1784 2931 
Q 1359 2931 1093 2626 
Q 828 2322 828 1663 
Q 828 994 1084 691 
Q 1341 388 1753 388 
Q 2084 388 2306 591 
Q 2528 794 2588 1216 
z
" transform="scale(0.015625)"/>
       <path id="ArialMT-73" d="M 197 991 
L 753 1078 
Q 800 744 1014 566 
Q 1228 388 1613 388 
Q 2000 388 2187 545 
Q 2375 703 2375 916 
Q 2375 1106 2209 1216 
Q 2094 1291 1634 1406 
Q 1016 1563 777 1677 
Q 538 1791 414 1992 
Q 291 2194 291 2438 
Q 291 2659 392 2848 
Q 494 3038 669 3163 
Q 800 3259 1026 3326 
Q 1253 3394 1513 3394 
Q 1903 3394 2198 3281 
Q 2494 3169 2634 2976 
Q 2775 2784 2828 2463 
L 2278 2388 
Q 2241 2644 2061 2787 
Q 1881 2931 1553 2931 
Q 1166 2931 1000 2803 
Q 834 2675 834 2503 
Q 834 2394 903 2306 
Q 972 2216 1119 2156 
Q 1203 2125 1616 2013 
Q 2213 1853 2448 1751 
Q 2684 1650 2818 1456 
Q 2953 1263 2953 975 
Q 2953 694 2789 445 
Q 2625 197 2315 61 
Q 2006 -75 1616 -75 
Q 969 -75 630 194 
Q 291 463 197 991 
z
" transform="scale(0.015625)"/>
      </defs>
      <use xlink:href="#ArialMT-4e"/>
      <use xlink:href="#ArialMT-75" x="72.216797"/>
      <use xlink:href="#ArialMT-6d" x="127.832031"/>
      <use xlink:href="#ArialMT-62" x="211.132812"/>
      <use xlink:href="#ArialMT-65" x="266.748047"/>
      <use xlink:href="#ArialMT-72" x="322.363281"/>
      <use xlink:href="#ArialMT-20" x="355.664062"/>
      <use xlink:href="#ArialMT-6f" x="383.447266"/>
      <use xlink:href="#ArialMT-66" x="439.0625"/>
      <use xlink:href="#ArialMT-20" x="466.845703"/>
      <use xlink:href="#ArialMT-54" x="492.878906"/>
      <use xlink:href="#ArialMT-6f" x="542.837891"/>
      <use xlink:href="#ArialMT-70" x="598.453125"/>
      <use xlink:href="#ArialMT-69" x="654.068359"/>
      <use xlink:href="#ArialMT-63" x="676.285156"/>
      <use xlink:href="#ArialMT-73" x="726.285156"/>
     </g>
    </g>
   </g>
   <g id="matplotlib.axis_2">
    <g id="ytick_1">
     <g id="line2d_15">
      <path d="M 45.071563 311.839172 
L 519.801563 311.839172 
" clip-path="url(#pc6fd5c666d)" style="fill: none; stroke: #808080; stroke-opacity: 0.3; stroke-linecap: round"/>
     </g>
     <g id="line2d_16"/>
     <g id="text_9">
      <!-- 580 -->
      <g style="fill: #262626" transform="translate(21.38875 315.418078) scale(0.1 -0.1)">
       <defs>
        <path id="ArialMT-35" d="M 266 1200 
L 856 1250 
Q 922 819 1161 601 
Q 1400 384 1738 384 
Q 2144 384 2425 690 
Q 2706 997 2706 1503 
Q 2706 1984 2436 2262 
Q 2166 2541 1728 2541 
Q 1456 2541 1237 2417 
Q 1019 2294 894 2097 
L 366 2166 
L 809 4519 
L 3088 4519 
L 3088 3981 
L 1259 3981 
L 1013 2750 
Q 1425 3038 1878 3038 
Q 2478 3038 2890 2622 
Q 3303 2206 3303 1553 
Q 3303 931 2941 478 
Q 2500 -78 1738 -78 
Q 1113 -78 717 272 
Q 322 622 266 1200 
z
" transform="scale(0.015625)"/>
       </defs>
       <use xlink:href="#ArialMT-35"/>
       <use xlink:href="#ArialMT-38" x="55.615234"/>
       <use xlink:href="#ArialMT-30" x="111.230469"/>
      </g>
     </g>
    </g>
    <g id="ytick_2">
     <g id="line2d_17">
      <path d="M 45.071563 252.603407 
L 519.801563 252.603407 
" clip-path="url(#pc6fd5c666d)" style="fill: none; stroke: #808080; stroke-opacity: 0.3; stroke-linecap: round"/>
     </g>
     <g id="line2d_18"/>
     <g id="text_10">
      <!-- 600 -->
      <g style="fill: #262626" transform="translate(21.38875 256.182313) scale(0.1 -0.1)">
       <use xlink:href="#ArialMT-36"/>
       <use xlink:href="#ArialMT-30" x="55.615234"/>
       <use xlink:href="#ArialMT-30" x="111.230469"/>
      </g>
     </g>
    </g>
    <g id="ytick_3">
     <g id="line2d_19">
      <path d="M 45.071563 193.367642 
L 519.801563 193.367642 
" clip-path="url(#pc6fd5c666d)" style="fill: none; stroke: #808080; stroke-opacity: 0.3; stroke-linecap: round"/>
     </g>
     <g id="line2d_20"/>
     <g id="text_11">
      <!-- 620 -->
      <g style="fill: #262626" transform="translate(21.38875 196.946548) scale(0.1 -0.1)">
       <use xlink:href="#ArialMT-36"/>
       <use xlink:href="#ArialMT-32" x="55.615234"/>
       <use xlink:href="#ArialMT-30" x="111.230469"/>
      </g>
     </g>
    </g>
    <g id="ytick_4">
     <g id="line2d_21">
      <path d="M 45.071563 134.131877 
L 519.801563 134.131877 
" clip-path="url(#pc6fd5c666d)" style="fill: none; stroke: #808080; stroke-opacity: 0.3; stroke-linecap: round"/>
     </g>
     <g id="line2d_22"/>
     <g id="text_12">
      <!-- 640 -->
      <g style="fill: #262626" transform="translate(21.38875 137.710784) scale(0.1 -0.1)">
       <use xlink:href="#ArialMT-36"/>
       <use xlink:href="#ArialMT-34" x="55.615234"/>
       <use xlink:href="#ArialMT-30" x="111.230469"/>
      </g>
     </g>
    </g>
    <g id="ytick_5">
     <g id="line2d_23">
      <path d="M 45.071563 74.896113 
L 519.801563 74.896113 
" clip-path="url(#pc6fd5c666d)" style="fill: none; stroke: #808080; stroke-opacity: 0.3; stroke-linecap: round"/>
     </g>
     <g id="line2d_24"/>
     <g id="text_13">
      <!-- 660 -->
      <g style="fill: #262626" transform="translate(21.38875 78.475019) scale(0.1 -0.1)">
       <use xlink:href="#ArialMT-36"/>
       <use xlink:href="#ArialMT-36" x="55.615234"/>
       <use xlink:href="#ArialMT-30" x="111.230469"/>
      </g>
     </g>
    </g>
    <g id="text_14">
     <!-- Perplexity -->
     <g style="fill: #262626" transform="translate(15.073594 192.208828) rotate(-90) scale(0.11 -0.11)">
      <defs>
       <path id="ArialMT-50" d="M 494 0 
L 494 4581 
L 2222 4581 
Q 2678 4581 2919 4538 
Q 3256 4481 3484 4323 
Q 3713 4166 3852 3881 
Q 3991 3597 3991 3256 
Q 3991 2672 3619 2267 
Q 3247 1863 2275 1863 
L 1100 1863 
L 1100 0 
L 494 0 
z
M 1100 2403 
L 2284 2403 
Q 2872 2403 3119 2622 
Q 3366 2841 3366 3238 
Q 3366 3525 3220 3729 
Q 3075 3934 2838 4000 
Q 2684 4041 2272 4041 
L 1100 4041 
L 1100 2403 
z
" transform="scale(0.015625)"/>
       <path id="ArialMT-6c" d="M 409 0 
L 409 4581 
L 972 4581 
L 972 0 
L 409 0 
z
" transform="scale(0.015625)"/>
       <path id="ArialMT-78" d="M 47 0 
L 1259 1725 
L 138 3319 
L 841 3319 
L 1350 2541 
Q 1494 2319 1581 2169 
Q 1719 2375 1834 2534 
L 2394 3319 
L 3066 3319 
L 1919 1756 
L 3153 0 
L 2463 0 
L 1781 1031 
L 1600 1309 
L 728 0 
L 47 0 
z
" transform="scale(0.015625)"/>
       <path id="ArialMT-74" d="M 1650 503 
L 1731 6 
Q 1494 -44 1306 -44 
Q 1000 -44 831 53 
Q 663 150 594 308 
Q 525 466 525 972 
L 525 2881 
L 113 2881 
L 113 3319 
L 525 3319 
L 525 4141 
L 1084 4478 
L 1084 3319 
L 1650 3319 
L 1650 2881 
L 1084 2881 
L 1084 941 
Q 1084 700 1114 631 
Q 1144 563 1211 522 
Q 1278 481 1403 481 
Q 1497 481 1650 503 
z
" transform="scale(0.015625)"/>
       <path id="ArialMT-79" d="M 397 -1278 
L 334 -750 
Q 519 -800 656 -800 
Q 844 -800 956 -737 
Q 1069 -675 1141 -563 
Q 1194 -478 1313 -144 
Q 1328 -97 1363 -6 
L 103 3319 
L 709 3319 
L 1400 1397 
Q 1534 1031 1641 628 
Q 1738 1016 1872 1384 
L 2581 3319 
L 3144 3319 
L 1881 -56 
Q 1678 -603 1566 -809 
Q 1416 -1088 1222 -1217 
Q 1028 -1347 759 -1347 
Q 597 -1347 397 -1278 
z
" transform="scale(0.015625)"/>
      </defs>
      <use xlink:href="#ArialMT-50"/>
      <use xlink:href="#ArialMT-65" x="66.699219"/>
      <use xlink:href="#ArialMT-72" x="122.314453"/>
      <use xlink:href="#ArialMT-70" x="155.615234"/>
      <use xlink:href="#ArialMT-6c" x="211.230469"/>
      <use xlink:href="#ArialMT-65" x="233.447266"/>
      <use xlink:href="#ArialMT-78" x="289.0625"/>
      <use xlink:href="#ArialMT-69" x="339.0625"/>
      <use xlink:href="#ArialMT-74" x="361.279297"/>
      <use xlink:href="#ArialMT-79" x="389.0625"/>
     </g>
    </g>
   </g>
   <g id="line2d_25">
    <path d="M 66.650199 35.086818 
L 99.848101 114.545605 
L 133.046003 201.788609 
L 166.243905 238.179261 
L 199.441807 241.604324 
L 232.639709 236.882818 
L 265.837611 286.027367 
L 299.035514 253.06555 
L 332.233416 281.994997 
L 365.431318 283.259683 
L 398.62922 290.153817 
L 431.827122 261.802448 
L 465.025024 301.035682 
L 498.222926 272.430667 
" clip-path="url(#pc6fd5c666d)" style="fill: none; stroke: #0000ff; stroke-width: 2; stroke-linecap: round"/>
    <defs>
     <path id="m288e183106" d="M 0 4 
C 1.060812 4 2.078319 3.578535 2.828427 2.828427 
C 3.578535 2.078319 4 1.060812 4 0 
C 4 -1.060812 3.578535 -2.078319 2.828427 -2.828427 
C 2.078319 -3.578535 1.060812 -4 0 -4 
C -1.060812 -4 -2.078319 -3.578535 -2.828427 -2.828427 
C -3.578535 -2.078319 -4 -1.060812 -4 0 
C -4 1.060812 -3.578535 2.078319 -2.828427 2.828427 
C -2.078319 3.578535 -1.060812 4 0 4 
z
"/>
    </defs>
    <g clip-path="url(#pc6fd5c666d)">
     <use xlink:href="#m288e183106" x="66.650199" y="35.086818" style="fill: #0000ff"/>
     <use xlink:href="#m288e183106" x="99.848101" y="114.545605" style="fill: #0000ff"/>
     <use xlink:href="#m288e183106" x="133.046003" y="201.788609" style="fill: #0000ff"/>
     <use xlink:href="#m288e183106" x="166.243905" y="238.179261" style="fill: #0000ff"/>
     <use xlink:href="#m288e183106" x="199.441807" y="241.604324" style="fill: #0000ff"/>
     <use xlink:href="#m288e183106" x="232.639709" y="236.882818" style="fill: #0000ff"/>
     <use xlink:href="#m288e183106" x="265.837611" y="286.027367" style="fill: #0000ff"/>
     <use xlink:href="#m288e183106" x="299.035514" y="253.06555" style="fill: #0000ff"/>
     <use xlink:href="#m288e183106" x="332.233416" y="281.994997" style="fill: #0000ff"/>
     <use xlink:href="#m288e183106" x="365.431318" y="283.259683" style="fill: #0000ff"/>
     <use xlink:href="#m288e183106" x="398.62922" y="290.153817" style="fill: #0000ff"/>
     <use xlink:href="#m288e183106" x="431.827122" y="261.802448" style="fill: #0000ff"/>
     <use xlink:href="#m288e183106" x="465.025024" y="301.035682" style="fill: #0000ff"/>
     <use xlink:href="#m288e183106" x="498.222926" y="272.430667" style="fill: #0000ff"/>
    </g>
   </g>
   <g id="patch_3">
    <path d="M 45.071563 314.333125 
L 45.071563 21.789375 
" style="fill: none"/>
   </g>
   <g id="patch_4">
    <path d="M 519.801563 314.333125 
L 519.801563 21.789375 
" style="fill: none"/>
   </g>
   <g id="patch_5">
    <path d="M 45.071563 314.333125 
L 519.801563 314.333125 
" style="fill: none"/>
   </g>
   <g id="patch_6">
    <path d="M 45.071563 21.789375 
L 519.801563 21.789375 
" style="fill: none"/>
   </g>
   <g id="text_15">
    <!-- LDA Model Perplexity -->
    <g style="fill: #262626" transform="translate(225.0775 15.789375) scale(0.12 -0.12)">
     <defs>
      <path id="ArialMT-4c" d="M 469 0 
L 469 4581 
L 1075 4581 
L 1075 541 
L 3331 541 
L 3331 0 
L 469 0 
z
" transform="scale(0.015625)"/>
      <path id="ArialMT-44" d="M 494 0 
L 494 4581 
L 2072 4581 
Q 2606 4581 2888 4516 
Q 3281 4425 3559 4188 
Q 3922 3881 4101 3404 
Q 4281 2928 4281 2316 
Q 4281 1794 4159 1391 
Q 4038 988 3847 723 
Q 3656 459 3429 307 
Q 3203 156 2883 78 
Q 2563 0 2147 0 
L 494 0 
z
M 1100 541 
L 2078 541 
Q 2531 541 2789 625 
Q 3047 709 3200 863 
Q 3416 1078 3536 1442 
Q 3656 1806 3656 2325 
Q 3656 3044 3420 3430 
Q 3184 3816 2847 3947 
Q 2603 4041 2063 4041 
L 1100 4041 
L 1100 541 
z
" transform="scale(0.015625)"/>
      <path id="ArialMT-41" d="M -9 0 
L 1750 4581 
L 2403 4581 
L 4278 0 
L 3588 0 
L 3053 1388 
L 1138 1388 
L 634 0 
L -9 0 
z
M 1313 1881 
L 2866 1881 
L 2388 3150 
Q 2169 3728 2063 4100 
Q 1975 3659 1816 3225 
L 1313 1881 
z
" transform="scale(0.015625)"/>
      <path id="ArialMT-4d" d="M 475 0 
L 475 4581 
L 1388 4581 
L 2472 1338 
Q 2622 884 2691 659 
Q 2769 909 2934 1394 
L 4031 4581 
L 4847 4581 
L 4847 0 
L 4263 0 
L 4263 3834 
L 2931 0 
L 2384 0 
L 1059 3900 
L 1059 0 
L 475 0 
z
" transform="scale(0.015625)"/>
      <path id="ArialMT-64" d="M 2575 0 
L 2575 419 
Q 2259 -75 1647 -75 
Q 1250 -75 917 144 
Q 584 363 401 755 
Q 219 1147 219 1656 
Q 219 2153 384 2558 
Q 550 2963 881 3178 
Q 1213 3394 1622 3394 
Q 1922 3394 2156 3267 
Q 2391 3141 2538 2938 
L 2538 4581 
L 3097 4581 
L 3097 0 
L 2575 0 
z
M 797 1656 
Q 797 1019 1065 703 
Q 1334 388 1700 388 
Q 2069 388 2326 689 
Q 2584 991 2584 1609 
Q 2584 2291 2321 2609 
Q 2059 2928 1675 2928 
Q 1300 2928 1048 2622 
Q 797 2316 797 1656 
z
" transform="scale(0.015625)"/>
     </defs>
     <use xlink:href="#ArialMT-4c"/>
     <use xlink:href="#ArialMT-44" x="55.615234"/>
     <use xlink:href="#ArialMT-41" x="127.832031"/>
     <use xlink:href="#ArialMT-20" x="189.03125"/>
     <use xlink:href="#ArialMT-4d" x="216.814453"/>
     <use xlink:href="#ArialMT-6f" x="300.115234"/>
     <use xlink:href="#ArialMT-64" x="355.730469"/>
     <use xlink:href="#ArialMT-65" x="411.345703"/>
     <use xlink:href="#ArialMT-6c" x="466.960938"/>
     <use xlink:href="#ArialMT-20" x="489.177734"/>
     <use xlink:href="#ArialMT-50" x="516.960938"/>
     <use xlink:href="#ArialMT-65" x="583.660156"/>
     <use xlink:href="#ArialMT-72" x="639.275391"/>
     <use xlink:href="#ArialMT-70" x="672.576172"/>
     <use xlink:href="#ArialMT-6c" x="728.191406"/>
     <use xlink:href="#ArialMT-65" x="750.408203"/>
     <use xlink:href="#ArialMT-78" x="806.023438"/>
     <use xlink:href="#ArialMT-69" x="856.023438"/>
     <use xlink:href="#ArialMT-74" x="878.240234"/>
     <use xlink:href="#ArialMT-79" x="906.023438"/>
    </g>
   </g>
  </g>
  <g id="axes_2">
   <g id="patch_7">
    <path d="M 591.011563 314.333125 
L 1065.741563 314.333125 
L 1065.741563 21.789375 
L 591.011563 21.789375 
L 591.011563 314.333125 
z
" style="fill: none"/>
   </g>
   <g id="matplotlib.axis_3">
    <g id="xtick_8">
     <g id="line2d_26">
      <path d="M 612.590199 314.333125 
L 612.590199 21.789375 
" clip-path="url(#p65651e07d9)" style="fill: none; stroke: #808080; stroke-opacity: 0.3; stroke-linecap: round"/>
     </g>
     <g id="line2d_27"/>
     <g id="text_16">
      <!-- 2 -->
      <g style="fill: #262626" transform="translate(609.80973 328.490938) scale(0.1 -0.1)">
       <use xlink:href="#ArialMT-32"/>
      </g>
     </g>
    </g>
    <g id="xtick_9">
     <g id="line2d_28">
      <path d="M 678.986003 314.333125 
L 678.986003 21.789375 
" clip-path="url(#p65651e07d9)" style="fill: none; stroke: #808080; stroke-opacity: 0.3; stroke-linecap: round"/>
     </g>
     <g id="line2d_29"/>
     <g id="text_17">
      <!-- 4 -->
      <g style="fill: #262626" transform="translate(676.205534 328.490938) scale(0.1 -0.1)">
       <use xlink:href="#ArialMT-34"/>
      </g>
     </g>
    </g>
    <g id="xtick_10">
     <g id="line2d_30">
      <path d="M 745.381807 314.333125 
L 745.381807 21.789375 
" clip-path="url(#p65651e07d9)" style="fill: none; stroke: #808080; stroke-opacity: 0.3; stroke-linecap: round"/>
     </g>
     <g id="line2d_31"/>
     <g id="text_18">
      <!-- 6 -->
      <g style="fill: #262626" transform="translate(742.601339 328.490938) scale(0.1 -0.1)">
       <use xlink:href="#ArialMT-36"/>
      </g>
     </g>
    </g>
    <g id="xtick_11">
     <g id="line2d_32">
      <path d="M 811.777611 314.333125 
L 811.777611 21.789375 
" clip-path="url(#p65651e07d9)" style="fill: none; stroke: #808080; stroke-opacity: 0.3; stroke-linecap: round"/>
     </g>
     <g id="line2d_33"/>
     <g id="text_19">
      <!-- 8 -->
      <g style="fill: #262626" transform="translate(808.997143 328.490938) scale(0.1 -0.1)">
       <use xlink:href="#ArialMT-38"/>
      </g>
     </g>
    </g>
    <g id="xtick_12">
     <g id="line2d_34">
      <path d="M 878.173416 314.333125 
L 878.173416 21.789375 
" clip-path="url(#p65651e07d9)" style="fill: none; stroke: #808080; stroke-opacity: 0.3; stroke-linecap: round"/>
     </g>
     <g id="line2d_35"/>
     <g id="text_20">
      <!-- 10 -->
      <g style="fill: #262626" transform="translate(872.612478 328.490938) scale(0.1 -0.1)">
       <use xlink:href="#ArialMT-31"/>
       <use xlink:href="#ArialMT-30" x="55.615234"/>
      </g>
     </g>
    </g>
    <g id="xtick_13">
     <g id="line2d_36">
      <path d="M 944.56922 314.333125 
L 944.56922 21.789375 
" clip-path="url(#p65651e07d9)" style="fill: none; stroke: #808080; stroke-opacity: 0.3; stroke-linecap: round"/>
     </g>
     <g id="line2d_37"/>
     <g id="text_21">
      <!-- 12 -->
      <g style="fill: #262626" transform="translate(939.008282 328.490938) scale(0.1 -0.1)">
       <use xlink:href="#ArialMT-31"/>
       <use xlink:href="#ArialMT-32" x="55.615234"/>
      </g>
     </g>
    </g>
    <g id="xtick_14">
     <g id="line2d_38">
      <path d="M 1010.965024 314.333125 
L 1010.965024 21.789375 
" clip-path="url(#p65651e07d9)" style="fill: none; stroke: #808080; stroke-opacity: 0.3; stroke-linecap: round"/>
     </g>
     <g id="line2d_39"/>
     <g id="text_22">
      <!-- 14 -->
      <g style="fill: #262626" transform="translate(1005.404087 328.490938) scale(0.1 -0.1)">
       <use xlink:href="#ArialMT-31"/>
       <use xlink:href="#ArialMT-34" x="55.615234"/>
      </g>
     </g>
    </g>
    <g id="text_23">
     <!-- Number of Topics -->
     <g style="fill: #262626" transform="translate(785.683672 342.486094) scale(0.11 -0.11)">
      <use xlink:href="#ArialMT-4e"/>
      <use xlink:href="#ArialMT-75" x="72.216797"/>
      <use xlink:href="#ArialMT-6d" x="127.832031"/>
      <use xlink:href="#ArialMT-62" x="211.132812"/>
      <use xlink:href="#ArialMT-65" x="266.748047"/>
      <use xlink:href="#ArialMT-72" x="322.363281"/>
      <use xlink:href="#ArialMT-20" x="355.664062"/>
      <use xlink:href="#ArialMT-6f" x="383.447266"/>
      <use xlink:href="#ArialMT-66" x="439.0625"/>
      <use xlink:href="#ArialMT-20" x="466.845703"/>
      <use xlink:href="#ArialMT-54" x="492.878906"/>
      <use xlink:href="#ArialMT-6f" x="542.837891"/>
      <use xlink:href="#ArialMT-70" x="598.453125"/>
      <use xlink:href="#ArialMT-69" x="654.068359"/>
      <use xlink:href="#ArialMT-63" x="676.285156"/>
      <use xlink:href="#ArialMT-73" x="726.285156"/>
     </g>
    </g>
   </g>
   <g id="matplotlib.axis_4">
    <g id="ytick_6">
     <g id="line2d_40">
      <path d="M 591.011563 285.294089 
L 1065.741563 285.294089 
" clip-path="url(#p65651e07d9)" style="fill: none; stroke: #808080; stroke-opacity: 0.3; stroke-linecap: round"/>
     </g>
     <g id="line2d_41"/>
     <g id="text_24">
      <!-- −235000 -->
      <g style="fill: #262626" transform="translate(544.805313 288.872995) scale(0.1 -0.1)">
       <defs>
        <path id="ArialMT-2212" d="M 3381 1997 
L 356 1997 
L 356 2522 
L 3381 2522 
L 3381 1997 
z
" transform="scale(0.015625)"/>
        <path id="ArialMT-33" d="M 269 1209 
L 831 1284 
Q 928 806 1161 595 
Q 1394 384 1728 384 
Q 2125 384 2398 659 
Q 2672 934 2672 1341 
Q 2672 1728 2419 1979 
Q 2166 2231 1775 2231 
Q 1616 2231 1378 2169 
L 1441 2663 
Q 1497 2656 1531 2656 
Q 1891 2656 2178 2843 
Q 2466 3031 2466 3422 
Q 2466 3731 2256 3934 
Q 2047 4138 1716 4138 
Q 1388 4138 1169 3931 
Q 950 3725 888 3313 
L 325 3413 
Q 428 3978 793 4289 
Q 1159 4600 1703 4600 
Q 2078 4600 2393 4439 
Q 2709 4278 2876 4000 
Q 3044 3722 3044 3409 
Q 3044 3113 2884 2869 
Q 2725 2625 2413 2481 
Q 2819 2388 3044 2092 
Q 3269 1797 3269 1353 
Q 3269 753 2831 336 
Q 2394 -81 1725 -81 
Q 1122 -81 723 278 
Q 325 638 269 1209 
z
" transform="scale(0.015625)"/>
       </defs>
       <use xlink:href="#ArialMT-2212"/>
       <use xlink:href="#ArialMT-32" x="58.398438"/>
       <use xlink:href="#ArialMT-33" x="114.013672"/>
       <use xlink:href="#ArialMT-35" x="169.628906"/>
       <use xlink:href="#ArialMT-30" x="225.244141"/>
       <use xlink:href="#ArialMT-30" x="280.859375"/>
       <use xlink:href="#ArialMT-30" x="336.474609"/>
      </g>
     </g>
    </g>
    <g id="ytick_7">
     <g id="line2d_42">
      <path d="M 591.011563 233.85922 
L 1065.741563 233.85922 
" clip-path="url(#p65651e07d9)" style="fill: none; stroke: #808080; stroke-opacity: 0.3; stroke-linecap: round"/>
     </g>
     <g id="line2d_43"/>
     <g id="text_25">
      <!-- −234000 -->
      <g style="fill: #262626" transform="translate(544.805313 237.438126) scale(0.1 -0.1)">
       <use xlink:href="#ArialMT-2212"/>
       <use xlink:href="#ArialMT-32" x="58.398438"/>
       <use xlink:href="#ArialMT-33" x="114.013672"/>
       <use xlink:href="#ArialMT-34" x="169.628906"/>
       <use xlink:href="#ArialMT-30" x="225.244141"/>
       <use xlink:href="#ArialMT-30" x="280.859375"/>
       <use xlink:href="#ArialMT-30" x="336.474609"/>
      </g>
     </g>
    </g>
    <g id="ytick_8">
     <g id="line2d_44">
      <path d="M 591.011563 182.424351 
L 1065.741563 182.424351 
" clip-path="url(#p65651e07d9)" style="fill: none; stroke: #808080; stroke-opacity: 0.3; stroke-linecap: round"/>
     </g>
     <g id="line2d_45"/>
     <g id="text_26">
      <!-- −233000 -->
      <g style="fill: #262626" transform="translate(544.805313 186.003258) scale(0.1 -0.1)">
       <use xlink:href="#ArialMT-2212"/>
       <use xlink:href="#ArialMT-32" x="58.398438"/>
       <use xlink:href="#ArialMT-33" x="114.013672"/>
       <use xlink:href="#ArialMT-33" x="169.628906"/>
       <use xlink:href="#ArialMT-30" x="225.244141"/>
       <use xlink:href="#ArialMT-30" x="280.859375"/>
       <use xlink:href="#ArialMT-30" x="336.474609"/>
      </g>
     </g>
    </g>
    <g id="ytick_9">
     <g id="line2d_46">
      <path d="M 591.011563 130.989483 
L 1065.741563 130.989483 
" clip-path="url(#p65651e07d9)" style="fill: none; stroke: #808080; stroke-opacity: 0.3; stroke-linecap: round"/>
     </g>
     <g id="line2d_47"/>
     <g id="text_27">
      <!-- −232000 -->
      <g style="fill: #262626" transform="translate(544.805313 134.568389) scale(0.1 -0.1)">
       <use xlink:href="#ArialMT-2212"/>
       <use xlink:href="#ArialMT-32" x="58.398438"/>
       <use xlink:href="#ArialMT-33" x="114.013672"/>
       <use xlink:href="#ArialMT-32" x="169.628906"/>
       <use xlink:href="#ArialMT-30" x="225.244141"/>
       <use xlink:href="#ArialMT-30" x="280.859375"/>
       <use xlink:href="#ArialMT-30" x="336.474609"/>
      </g>
     </g>
    </g>
    <g id="ytick_10">
     <g id="line2d_48">
      <path d="M 591.011563 79.554614 
L 1065.741563 79.554614 
" clip-path="url(#p65651e07d9)" style="fill: none; stroke: #808080; stroke-opacity: 0.3; stroke-linecap: round"/>
     </g>
     <g id="line2d_49"/>
     <g id="text_28">
      <!-- −231000 -->
      <g style="fill: #262626" transform="translate(544.805313 83.13352) scale(0.1 -0.1)">
       <use xlink:href="#ArialMT-2212"/>
       <use xlink:href="#ArialMT-32" x="58.398438"/>
       <use xlink:href="#ArialMT-33" x="114.013672"/>
       <use xlink:href="#ArialMT-31" x="169.628906"/>
       <use xlink:href="#ArialMT-30" x="225.244141"/>
       <use xlink:href="#ArialMT-30" x="280.859375"/>
       <use xlink:href="#ArialMT-30" x="336.474609"/>
      </g>
     </g>
    </g>
    <g id="ytick_11">
     <g id="line2d_50">
      <path d="M 591.011563 28.119745 
L 1065.741563 28.119745 
" clip-path="url(#p65651e07d9)" style="fill: none; stroke: #808080; stroke-opacity: 0.3; stroke-linecap: round"/>
     </g>
     <g id="line2d_51"/>
     <g id="text_29">
      <!-- −230000 -->
      <g style="fill: #262626" transform="translate(544.805313 31.698651) scale(0.1 -0.1)">
       <use xlink:href="#ArialMT-2212"/>
       <use xlink:href="#ArialMT-32" x="58.398438"/>
       <use xlink:href="#ArialMT-33" x="114.013672"/>
       <use xlink:href="#ArialMT-30" x="169.628906"/>
       <use xlink:href="#ArialMT-30" x="225.244141"/>
       <use xlink:href="#ArialMT-30" x="280.859375"/>
       <use xlink:href="#ArialMT-30" x="336.474609"/>
      </g>
     </g>
    </g>
    <g id="text_30">
     <!-- Log Likelihood -->
     <g style="fill: #262626" transform="translate(538.490156 203.531953) rotate(-90) scale(0.11 -0.11)">
      <defs>
       <path id="ArialMT-67" d="M 319 -275 
L 866 -356 
Q 900 -609 1056 -725 
Q 1266 -881 1628 -881 
Q 2019 -881 2231 -725 
Q 2444 -569 2519 -288 
Q 2563 -116 2559 434 
Q 2191 0 1641 0 
Q 956 0 581 494 
Q 206 988 206 1678 
Q 206 2153 378 2554 
Q 550 2956 876 3175 
Q 1203 3394 1644 3394 
Q 2231 3394 2613 2919 
L 2613 3319 
L 3131 3319 
L 3131 450 
Q 3131 -325 2973 -648 
Q 2816 -972 2473 -1159 
Q 2131 -1347 1631 -1347 
Q 1038 -1347 672 -1080 
Q 306 -813 319 -275 
z
M 784 1719 
Q 784 1066 1043 766 
Q 1303 466 1694 466 
Q 2081 466 2343 764 
Q 2606 1063 2606 1700 
Q 2606 2309 2336 2618 
Q 2066 2928 1684 2928 
Q 1309 2928 1046 2623 
Q 784 2319 784 1719 
z
" transform="scale(0.015625)"/>
       <path id="ArialMT-6b" d="M 425 0 
L 425 4581 
L 988 4581 
L 988 1969 
L 2319 3319 
L 3047 3319 
L 1778 2088 
L 3175 0 
L 2481 0 
L 1384 1697 
L 988 1316 
L 988 0 
L 425 0 
z
" transform="scale(0.015625)"/>
       <path id="ArialMT-68" d="M 422 0 
L 422 4581 
L 984 4581 
L 984 2938 
Q 1378 3394 1978 3394 
Q 2347 3394 2619 3248 
Q 2891 3103 3008 2847 
Q 3125 2591 3125 2103 
L 3125 0 
L 2563 0 
L 2563 2103 
Q 2563 2525 2380 2717 
Q 2197 2909 1863 2909 
Q 1613 2909 1392 2779 
Q 1172 2650 1078 2428 
Q 984 2206 984 1816 
L 984 0 
L 422 0 
z
" transform="scale(0.015625)"/>
      </defs>
      <use xlink:href="#ArialMT-4c"/>
      <use xlink:href="#ArialMT-6f" x="55.615234"/>
      <use xlink:href="#ArialMT-67" x="111.230469"/>
      <use xlink:href="#ArialMT-20" x="166.845703"/>
      <use xlink:href="#ArialMT-4c" x="194.628906"/>
      <use xlink:href="#ArialMT-69" x="250.244141"/>
      <use xlink:href="#ArialMT-6b" x="272.460938"/>
      <use xlink:href="#ArialMT-65" x="322.460938"/>
      <use xlink:href="#ArialMT-6c" x="378.076172"/>
      <use xlink:href="#ArialMT-69" x="400.292969"/>
      <use xlink:href="#ArialMT-68" x="422.509766"/>
      <use xlink:href="#ArialMT-6f" x="478.125"/>
      <use xlink:href="#ArialMT-6f" x="533.740234"/>
      <use xlink:href="#ArialMT-64" x="589.355469"/>
     </g>
    </g>
   </g>
   <g id="line2d_52">
    <path d="M 612.590199 301.035682 
L 645.788101 225.485471 
L 678.986003 138.835797 
L 712.183905 101.463538 
L 745.381807 97.90708 
L 778.579709 102.807942 
L 811.777611 51.152469 
L 844.975514 85.956437 
L 878.173416 55.445354 
L 911.371318 54.100029 
L 944.56922 46.749136 
L 977.767122 76.794555 
L 1010.965024 35.086818 
L 1044.162926 65.588117 
" clip-path="url(#p65651e07d9)" style="fill: none; stroke: #ff0000; stroke-width: 2; stroke-linecap: round"/>
    <defs>
     <path id="mea96499ca5" d="M 0 4 
C 1.060812 4 2.078319 3.578535 2.828427 2.828427 
C 3.578535 2.078319 4 1.060812 4 0 
C 4 -1.060812 3.578535 -2.078319 2.828427 -2.828427 
C 2.078319 -3.578535 1.060812 -4 0 -4 
C -1.060812 -4 -2.078319 -3.578535 -2.828427 -2.828427 
C -3.578535 -2.078319 -4 -1.060812 -4 0 
C -4 1.060812 -3.578535 2.078319 -2.828427 2.828427 
C -2.078319 3.578535 -1.060812 4 0 4 
z
"/>
    </defs>
    <g clip-path="url(#p65651e07d9)">
     <use xlink:href="#mea96499ca5" x="612.590199" y="301.035682" style="fill: #ff0000"/>
     <use xlink:href="#mea96499ca5" x="645.788101" y="225.485471" style="fill: #ff0000"/>
     <use xlink:href="#mea96499ca5" x="678.986003" y="138.835797" style="fill: #ff0000"/>
     <use xlink:href="#mea96499ca5" x="712.183905" y="101.463538" style="fill: #ff0000"/>
     <use xlink:href="#mea96499ca5" x="745.381807" y="97.90708" style="fill: #ff0000"/>
     <use xlink:href="#mea96499ca5" x="778.579709" y="102.807942" style="fill: #ff0000"/>
     <use xlink:href="#mea96499ca5" x="811.777611" y="51.152469" style="fill: #ff0000"/>
     <use xlink:href="#mea96499ca5" x="844.975514" y="85.956437" style="fill: #ff0000"/>
     <use xlink:href="#mea96499ca5" x="878.173416" y="55.445354" style="fill: #ff0000"/>
     <use xlink:href="#mea96499ca5" x="911.371318" y="54.100029" style="fill: #ff0000"/>
     <use xlink:href="#mea96499ca5" x="944.56922" y="46.749136" style="fill: #ff0000"/>
     <use xlink:href="#mea96499ca5" x="977.767122" y="76.794555" style="fill: #ff0000"/>
     <use xlink:href="#mea96499ca5" x="1010.965024" y="35.086818" style="fill: #ff0000"/>
     <use xlink:href="#mea96499ca5" x="1044.162926" y="65.588117" style="fill: #ff0000"/>
    </g>
   </g>
   <g id="patch_8">
    <path d="M 591.011563 314.333125 
L 591.011563 21.789375 
" style="fill: none"/>
   </g>
   <g id="patch_9">
    <path d="M 1065.741563 314.333125 
L 1065.741563 21.789375 
" style="fill: none"/>
   </g>
   <g id="patch_10">
    <path d="M 591.011563 314.333125 
L 1065.741563 314.333125 
" style="fill: none"/>
   </g>
   <g id="patch_11">
    <path d="M 591.011563 21.789375 
L 1065.741563 21.789375 
" style="fill: none"/>
   </g>
   <g id="text_31">
    <!-- LDA Model Log Likelihood -->
    <g style="fill: #262626" transform="translate(758.665 15.789375) scale(0.12 -0.12)">
     <use xlink:href="#ArialMT-4c"/>
     <use xlink:href="#ArialMT-44" x="55.615234"/>
     <use xlink:href="#ArialMT-41" x="127.832031"/>
     <use xlink:href="#ArialMT-20" x="189.03125"/>
     <use xlink:href="#ArialMT-4d" x="216.814453"/>
     <use xlink:href="#ArialMT-6f" x="300.115234"/>
     <use xlink:href="#ArialMT-64" x="355.730469"/>
     <use xlink:href="#ArialMT-65" x="411.345703"/>
     <use xlink:href="#ArialMT-6c" x="466.960938"/>
     <use xlink:href="#ArialMT-20" x="489.177734"/>
     <use xlink:href="#ArialMT-4c" x="516.960938"/>
     <use xlink:href="#ArialMT-6f" x="572.576172"/>
     <use xlink:href="#ArialMT-67" x="628.191406"/>
     <use xlink:href="#ArialMT-20" x="683.806641"/>
     <use xlink:href="#ArialMT-4c" x="711.589844"/>
     <use xlink:href="#ArialMT-69" x="767.205078"/>
     <use xlink:href="#ArialMT-6b" x="789.421875"/>
     <use xlink:href="#ArialMT-65" x="839.421875"/>
     <use xlink:href="#ArialMT-6c" x="895.037109"/>
     <use xlink:href="#ArialMT-69" x="917.253906"/>
     <use xlink:href="#ArialMT-68" x="939.470703"/>
     <use xlink:href="#ArialMT-6f" x="995.085938"/>
     <use xlink:href="#ArialMT-6f" x="1050.701172"/>
     <use xlink:href="#ArialMT-64" x="1106.316406"/>
    </g>
   </g>
  </g>
 </g>
 <defs>
  <clipPath id="pc6fd5c666d">
   <rect x="45.071563" y="21.789375" width="474.73" height="292.54375"/>
  </clipPath>
  <clipPath id="p65651e07d9">
   <rect x="591.011563" y="21.789375" width="474.73" height="292.54375"/>
  </clipPath>
 </defs>
</svg>
