<?xml version="1.0" encoding="utf-8" standalone="no"?>
<!DOCTYPE svg PUBLIC "-//W3C//DTD SVG 1.1//EN"
  "http://www.w3.org/Graphics/SVG/1.1/DTD/svg11.dtd">
<svg xmlns:xlink="http://www.w3.org/1999/xlink" width="1145.143437pt" height="856.322244pt" viewBox="0 0 1145.143437 856.322244" xmlns="http://www.w3.org/2000/svg" version="1.1">
 <metadata>
  <rdf:RDF xmlns:dc="http://purl.org/dc/elements/1.1/" xmlns:cc="http://creativecommons.org/ns#" xmlns:rdf="http://www.w3.org/1999/02/22-rdf-syntax-ns#">
   <cc:Work>
    <dc:type rdf:resource="http://purl.org/dc/dcmitype/StillImage"/>
    <dc:date>2025-07-21T10:23:45.562901</dc:date>
    <dc:format>image/svg+xml</dc:format>
    <dc:creator>
     <cc:Agent>
      <dc:title>Matplotlib v3.9.4, https://matplotlib.org/</dc:title>
     </cc:Agent>
    </dc:creator>
   </cc:Work>
  </rdf:RDF>
 </metadata>
 <defs>
  <style type="text/css">*{stroke-linejoin: round; stroke-linecap: butt}</style>
 </defs>
 <g id="figure_1">
  <g id="patch_1">
   <path d="M 0 856.322244 
L 1145.143437 856.322244 
L 1145.143437 0 
L 0 0 
z
" style="fill: #ffffff"/>
  </g>
  <g id="axes_1">
   <g id="patch_2">
    <path d="M 48.929688 379.639951 
L 1137.943438 379.639951 
L 1137.943438 38.8475 
L 48.929688 38.8475 
L 48.929688 379.639951 
z
" style="fill: none"/>
   </g>
   <g id="matplotlib.axis_1">
    <g id="xtick_1">
     <g id="line2d_1">
      <path d="M 93.455375 379.639951 
L 93.455375 38.8475 
" clip-path="url(#pc78ca46ac8)" style="fill: none; stroke: #808080; stroke-opacity: 0.3; stroke-linecap: round"/>
     </g>
     <g id="line2d_2"/>
     <g id="text_1">
      <!-- 2025-01 -->
      <g style="fill: #262626" transform="translate(75.107719 393.797764) scale(0.1 -0.1)">
       <defs>
        <path id="ArialMT-32" d="M 3222 541 
L 3222 0 
L 194 0 
Q 188 203 259 391 
Q 375 700 629 1000 
Q 884 1300 1366 1694 
Q 2113 2306 2375 2664 
Q 2638 3022 2638 3341 
Q 2638 3675 2398 3904 
Q 2159 4134 1775 4134 
Q 1369 4134 1125 3890 
Q 881 3647 878 3216 
L 300 3275 
Q 359 3922 746 4261 
Q 1134 4600 1788 4600 
Q 2447 4600 2831 4234 
Q 3216 3869 3216 3328 
Q 3216 3053 3103 2787 
Q 2991 2522 2730 2228 
Q 2469 1934 1863 1422 
Q 1356 997 1212 845 
Q 1069 694 975 541 
L 3222 541 
z
" transform="scale(0.015625)"/>
        <path id="ArialMT-30" d="M 266 2259 
Q 266 3072 433 3567 
Q 600 4063 929 4331 
Q 1259 4600 1759 4600 
Q 2128 4600 2406 4451 
Q 2684 4303 2865 4023 
Q 3047 3744 3150 3342 
Q 3253 2941 3253 2259 
Q 3253 1453 3087 958 
Q 2922 463 2592 192 
Q 2263 -78 1759 -78 
Q 1097 -78 719 397 
Q 266 969 266 2259 
z
M 844 2259 
Q 844 1131 1108 757 
Q 1372 384 1759 384 
Q 2147 384 2411 759 
Q 2675 1134 2675 2259 
Q 2675 3391 2411 3762 
Q 2147 4134 1753 4134 
Q 1366 4134 1134 3806 
Q 844 3388 844 2259 
z
" transform="scale(0.015625)"/>
        <path id="ArialMT-35" d="M 266 1200 
L 856 1250 
Q 922 819 1161 601 
Q 1400 384 1738 384 
Q 2144 384 2425 690 
Q 2706 997 2706 1503 
Q 2706 1984 2436 2262 
Q 2166 2541 1728 2541 
Q 1456 2541 1237 2417 
Q 1019 2294 894 2097 
L 366 2166 
L 809 4519 
L 3088 4519 
L 3088 3981 
L 1259 3981 
L 1013 2750 
Q 1425 3038 1878 3038 
Q 2478 3038 2890 2622 
Q 3303 2206 3303 1553 
Q 3303 931 2941 478 
Q 2500 -78 1738 -78 
Q 1113 -78 717 272 
Q 322 622 266 1200 
z
" transform="scale(0.015625)"/>
        <path id="ArialMT-2d" d="M 203 1375 
L 203 1941 
L 1931 1941 
L 1931 1375 
L 203 1375 
z
" transform="scale(0.015625)"/>
        <path id="ArialMT-31" d="M 2384 0 
L 1822 0 
L 1822 3584 
Q 1619 3391 1289 3197 
Q 959 3003 697 2906 
L 697 3450 
Q 1169 3672 1522 3987 
Q 1875 4303 2022 4600 
L 2384 4600 
L 2384 0 
z
" transform="scale(0.015625)"/>
       </defs>
       <use xlink:href="#ArialMT-32"/>
       <use xlink:href="#ArialMT-30" x="55.615234"/>
       <use xlink:href="#ArialMT-32" x="111.230469"/>
       <use xlink:href="#ArialMT-35" x="166.845703"/>
       <use xlink:href="#ArialMT-2d" x="222.460938"/>
       <use xlink:href="#ArialMT-30" x="255.761719"/>
       <use xlink:href="#ArialMT-31" x="311.376953"/>
      </g>
     </g>
    </g>
    <g id="xtick_2">
     <g id="line2d_3">
      <path d="M 247.678428 379.639951 
L 247.678428 38.8475 
" clip-path="url(#pc78ca46ac8)" style="fill: none; stroke: #808080; stroke-opacity: 0.3; stroke-linecap: round"/>
     </g>
     <g id="line2d_4"/>
     <g id="text_2">
      <!-- 2025-02 -->
      <g style="fill: #262626" transform="translate(229.330772 393.797764) scale(0.1 -0.1)">
       <use xlink:href="#ArialMT-32"/>
       <use xlink:href="#ArialMT-30" x="55.615234"/>
       <use xlink:href="#ArialMT-32" x="111.230469"/>
       <use xlink:href="#ArialMT-35" x="166.845703"/>
       <use xlink:href="#ArialMT-2d" x="222.460938"/>
       <use xlink:href="#ArialMT-30" x="255.761719"/>
       <use xlink:href="#ArialMT-32" x="311.376953"/>
      </g>
     </g>
    </g>
    <g id="xtick_3">
     <g id="line2d_5">
      <path d="M 386.976669 379.639951 
L 386.976669 38.8475 
" clip-path="url(#pc78ca46ac8)" style="fill: none; stroke: #808080; stroke-opacity: 0.3; stroke-linecap: round"/>
     </g>
     <g id="line2d_6"/>
     <g id="text_3">
      <!-- 2025-03 -->
      <g style="fill: #262626" transform="translate(368.629013 393.797764) scale(0.1 -0.1)">
       <defs>
        <path id="ArialMT-33" d="M 269 1209 
L 831 1284 
Q 928 806 1161 595 
Q 1394 384 1728 384 
Q 2125 384 2398 659 
Q 2672 934 2672 1341 
Q 2672 1728 2419 1979 
Q 2166 2231 1775 2231 
Q 1616 2231 1378 2169 
L 1441 2663 
Q 1497 2656 1531 2656 
Q 1891 2656 2178 2843 
Q 2466 3031 2466 3422 
Q 2466 3731 2256 3934 
Q 2047 4138 1716 4138 
Q 1388 4138 1169 3931 
Q 950 3725 888 3313 
L 325 3413 
Q 428 3978 793 4289 
Q 1159 4600 1703 4600 
Q 2078 4600 2393 4439 
Q 2709 4278 2876 4000 
Q 3044 3722 3044 3409 
Q 3044 3113 2884 2869 
Q 2725 2625 2413 2481 
Q 2819 2388 3044 2092 
Q 3269 1797 3269 1353 
Q 3269 753 2831 336 
Q 2394 -81 1725 -81 
Q 1122 -81 723 278 
Q 325 638 269 1209 
z
" transform="scale(0.015625)"/>
       </defs>
       <use xlink:href="#ArialMT-32"/>
       <use xlink:href="#ArialMT-30" x="55.615234"/>
       <use xlink:href="#ArialMT-32" x="111.230469"/>
       <use xlink:href="#ArialMT-35" x="166.845703"/>
       <use xlink:href="#ArialMT-2d" x="222.460938"/>
       <use xlink:href="#ArialMT-30" x="255.761719"/>
       <use xlink:href="#ArialMT-33" x="311.376953"/>
      </g>
     </g>
    </g>
    <g id="xtick_4">
     <g id="line2d_7">
      <path d="M 541.199722 379.639951 
L 541.199722 38.8475 
" clip-path="url(#pc78ca46ac8)" style="fill: none; stroke: #808080; stroke-opacity: 0.3; stroke-linecap: round"/>
     </g>
     <g id="line2d_8"/>
     <g id="text_4">
      <!-- 2025-04 -->
      <g style="fill: #262626" transform="translate(522.852066 393.797764) scale(0.1 -0.1)">
       <defs>
        <path id="ArialMT-34" d="M 2069 0 
L 2069 1097 
L 81 1097 
L 81 1613 
L 2172 4581 
L 2631 4581 
L 2631 1613 
L 3250 1613 
L 3250 1097 
L 2631 1097 
L 2631 0 
L 2069 0 
z
M 2069 1613 
L 2069 3678 
L 634 1613 
L 2069 1613 
z
" transform="scale(0.015625)"/>
       </defs>
       <use xlink:href="#ArialMT-32"/>
       <use xlink:href="#ArialMT-30" x="55.615234"/>
       <use xlink:href="#ArialMT-32" x="111.230469"/>
       <use xlink:href="#ArialMT-35" x="166.845703"/>
       <use xlink:href="#ArialMT-2d" x="222.460938"/>
       <use xlink:href="#ArialMT-30" x="255.761719"/>
       <use xlink:href="#ArialMT-34" x="311.376953"/>
      </g>
     </g>
    </g>
    <g id="xtick_5">
     <g id="line2d_9">
      <path d="M 690.447838 379.639951 
L 690.447838 38.8475 
" clip-path="url(#pc78ca46ac8)" style="fill: none; stroke: #808080; stroke-opacity: 0.3; stroke-linecap: round"/>
     </g>
     <g id="line2d_10"/>
     <g id="text_5">
      <!-- 2025-05 -->
      <g style="fill: #262626" transform="translate(672.100181 393.797764) scale(0.1 -0.1)">
       <use xlink:href="#ArialMT-32"/>
       <use xlink:href="#ArialMT-30" x="55.615234"/>
       <use xlink:href="#ArialMT-32" x="111.230469"/>
       <use xlink:href="#ArialMT-35" x="166.845703"/>
       <use xlink:href="#ArialMT-2d" x="222.460938"/>
       <use xlink:href="#ArialMT-30" x="255.761719"/>
       <use xlink:href="#ArialMT-35" x="311.376953"/>
      </g>
     </g>
    </g>
    <g id="xtick_6">
     <g id="line2d_11">
      <path d="M 844.67089 379.639951 
L 844.67089 38.8475 
" clip-path="url(#pc78ca46ac8)" style="fill: none; stroke: #808080; stroke-opacity: 0.3; stroke-linecap: round"/>
     </g>
     <g id="line2d_12"/>
     <g id="text_6">
      <!-- 2025-06 -->
      <g style="fill: #262626" transform="translate(826.323234 393.797764) scale(0.1 -0.1)">
       <defs>
        <path id="ArialMT-36" d="M 3184 3459 
L 2625 3416 
Q 2550 3747 2413 3897 
Q 2184 4138 1850 4138 
Q 1581 4138 1378 3988 
Q 1113 3794 959 3422 
Q 806 3050 800 2363 
Q 1003 2672 1297 2822 
Q 1591 2972 1913 2972 
Q 2475 2972 2870 2558 
Q 3266 2144 3266 1488 
Q 3266 1056 3080 686 
Q 2894 316 2569 119 
Q 2244 -78 1831 -78 
Q 1128 -78 684 439 
Q 241 956 241 2144 
Q 241 3472 731 4075 
Q 1159 4600 1884 4600 
Q 2425 4600 2770 4297 
Q 3116 3994 3184 3459 
z
M 888 1484 
Q 888 1194 1011 928 
Q 1134 663 1356 523 
Q 1578 384 1822 384 
Q 2178 384 2434 671 
Q 2691 959 2691 1453 
Q 2691 1928 2437 2201 
Q 2184 2475 1800 2475 
Q 1419 2475 1153 2201 
Q 888 1928 888 1484 
z
" transform="scale(0.015625)"/>
       </defs>
       <use xlink:href="#ArialMT-32"/>
       <use xlink:href="#ArialMT-30" x="55.615234"/>
       <use xlink:href="#ArialMT-32" x="111.230469"/>
       <use xlink:href="#ArialMT-35" x="166.845703"/>
       <use xlink:href="#ArialMT-2d" x="222.460938"/>
       <use xlink:href="#ArialMT-30" x="255.761719"/>
       <use xlink:href="#ArialMT-36" x="311.376953"/>
      </g>
     </g>
    </g>
    <g id="xtick_7">
     <g id="line2d_13">
      <path d="M 993.919006 379.639951 
L 993.919006 38.8475 
" clip-path="url(#pc78ca46ac8)" style="fill: none; stroke: #808080; stroke-opacity: 0.3; stroke-linecap: round"/>
     </g>
     <g id="line2d_14"/>
     <g id="text_7">
      <!-- 2025-07 -->
      <g style="fill: #262626" transform="translate(975.57135 393.797764) scale(0.1 -0.1)">
       <defs>
        <path id="ArialMT-37" d="M 303 3981 
L 303 4522 
L 3269 4522 
L 3269 4084 
Q 2831 3619 2401 2847 
Q 1972 2075 1738 1259 
Q 1569 684 1522 0 
L 944 0 
Q 953 541 1156 1306 
Q 1359 2072 1739 2783 
Q 2119 3494 2547 3981 
L 303 3981 
z
" transform="scale(0.015625)"/>
       </defs>
       <use xlink:href="#ArialMT-32"/>
       <use xlink:href="#ArialMT-30" x="55.615234"/>
       <use xlink:href="#ArialMT-32" x="111.230469"/>
       <use xlink:href="#ArialMT-35" x="166.845703"/>
       <use xlink:href="#ArialMT-2d" x="222.460938"/>
       <use xlink:href="#ArialMT-30" x="255.761719"/>
       <use xlink:href="#ArialMT-37" x="311.376953"/>
      </g>
     </g>
    </g>
    <g id="text_8">
     <!-- Date -->
     <g style="fill: #262626" transform="translate(580.763438 408.374639) scale(0.12 -0.12)">
      <defs>
       <path id="ArialMT-44" d="M 494 0 
L 494 4581 
L 2072 4581 
Q 2606 4581 2888 4516 
Q 3281 4425 3559 4188 
Q 3922 3881 4101 3404 
Q 4281 2928 4281 2316 
Q 4281 1794 4159 1391 
Q 4038 988 3847 723 
Q 3656 459 3429 307 
Q 3203 156 2883 78 
Q 2563 0 2147 0 
L 494 0 
z
M 1100 541 
L 2078 541 
Q 2531 541 2789 625 
Q 3047 709 3200 863 
Q 3416 1078 3536 1442 
Q 3656 1806 3656 2325 
Q 3656 3044 3420 3430 
Q 3184 3816 2847 3947 
Q 2603 4041 2063 4041 
L 1100 4041 
L 1100 541 
z
" transform="scale(0.015625)"/>
       <path id="ArialMT-61" d="M 2588 409 
Q 2275 144 1986 34 
Q 1697 -75 1366 -75 
Q 819 -75 525 192 
Q 231 459 231 875 
Q 231 1119 342 1320 
Q 453 1522 633 1644 
Q 813 1766 1038 1828 
Q 1203 1872 1538 1913 
Q 2219 1994 2541 2106 
Q 2544 2222 2544 2253 
Q 2544 2597 2384 2738 
Q 2169 2928 1744 2928 
Q 1347 2928 1158 2789 
Q 969 2650 878 2297 
L 328 2372 
Q 403 2725 575 2942 
Q 747 3159 1072 3276 
Q 1397 3394 1825 3394 
Q 2250 3394 2515 3294 
Q 2781 3194 2906 3042 
Q 3031 2891 3081 2659 
Q 3109 2516 3109 2141 
L 3109 1391 
Q 3109 606 3145 398 
Q 3181 191 3288 0 
L 2700 0 
Q 2613 175 2588 409 
z
M 2541 1666 
Q 2234 1541 1622 1453 
Q 1275 1403 1131 1340 
Q 988 1278 909 1158 
Q 831 1038 831 891 
Q 831 666 1001 516 
Q 1172 366 1500 366 
Q 1825 366 2078 508 
Q 2331 650 2450 897 
Q 2541 1088 2541 1459 
L 2541 1666 
z
" transform="scale(0.015625)"/>
       <path id="ArialMT-74" d="M 1650 503 
L 1731 6 
Q 1494 -44 1306 -44 
Q 1000 -44 831 53 
Q 663 150 594 308 
Q 525 466 525 972 
L 525 2881 
L 113 2881 
L 113 3319 
L 525 3319 
L 525 4141 
L 1084 4478 
L 1084 3319 
L 1650 3319 
L 1650 2881 
L 1084 2881 
L 1084 941 
Q 1084 700 1114 631 
Q 1144 563 1211 522 
Q 1278 481 1403 481 
Q 1497 481 1650 503 
z
" transform="scale(0.015625)"/>
       <path id="ArialMT-65" d="M 2694 1069 
L 3275 997 
Q 3138 488 2766 206 
Q 2394 -75 1816 -75 
Q 1088 -75 661 373 
Q 234 822 234 1631 
Q 234 2469 665 2931 
Q 1097 3394 1784 3394 
Q 2450 3394 2872 2941 
Q 3294 2488 3294 1666 
Q 3294 1616 3291 1516 
L 816 1516 
Q 847 969 1125 678 
Q 1403 388 1819 388 
Q 2128 388 2347 550 
Q 2566 713 2694 1069 
z
M 847 1978 
L 2700 1978 
Q 2663 2397 2488 2606 
Q 2219 2931 1791 2931 
Q 1403 2931 1139 2672 
Q 875 2413 847 1978 
z
" transform="scale(0.015625)"/>
      </defs>
      <use xlink:href="#ArialMT-44"/>
      <use xlink:href="#ArialMT-61" x="72.216797"/>
      <use xlink:href="#ArialMT-74" x="127.832031"/>
      <use xlink:href="#ArialMT-65" x="155.615234"/>
     </g>
    </g>
   </g>
   <g id="matplotlib.axis_2">
    <g id="ytick_1">
     <g id="line2d_15">
      <path d="M 48.929688 364.149385 
L 1137.943438 364.149385 
" clip-path="url(#pc78ca46ac8)" style="fill: none; stroke: #808080; stroke-opacity: 0.3; stroke-linecap: round"/>
     </g>
     <g id="line2d_16"/>
     <g id="text_9">
      <!-- 1 -->
      <g style="fill: #262626" transform="translate(36.36875 367.728292) scale(0.1 -0.1)">
       <use xlink:href="#ArialMT-31"/>
      </g>
     </g>
    </g>
    <g id="ytick_2">
     <g id="line2d_17">
      <path d="M 48.929688 319.890625 
L 1137.943438 319.890625 
" clip-path="url(#pc78ca46ac8)" style="fill: none; stroke: #808080; stroke-opacity: 0.3; stroke-linecap: round"/>
     </g>
     <g id="line2d_18"/>
     <g id="text_10">
      <!-- 2 -->
      <g style="fill: #262626" transform="translate(36.36875 323.469532) scale(0.1 -0.1)">
       <use xlink:href="#ArialMT-32"/>
      </g>
     </g>
    </g>
    <g id="ytick_3">
     <g id="line2d_19">
      <path d="M 48.929688 275.631866 
L 1137.943438 275.631866 
" clip-path="url(#pc78ca46ac8)" style="fill: none; stroke: #808080; stroke-opacity: 0.3; stroke-linecap: round"/>
     </g>
     <g id="line2d_20"/>
     <g id="text_11">
      <!-- 3 -->
      <g style="fill: #262626" transform="translate(36.36875 279.210772) scale(0.1 -0.1)">
       <use xlink:href="#ArialMT-33"/>
      </g>
     </g>
    </g>
    <g id="ytick_4">
     <g id="line2d_21">
      <path d="M 48.929688 231.373106 
L 1137.943438 231.373106 
" clip-path="url(#pc78ca46ac8)" style="fill: none; stroke: #808080; stroke-opacity: 0.3; stroke-linecap: round"/>
     </g>
     <g id="line2d_22"/>
     <g id="text_12">
      <!-- 4 -->
      <g style="fill: #262626" transform="translate(36.36875 234.952012) scale(0.1 -0.1)">
       <use xlink:href="#ArialMT-34"/>
      </g>
     </g>
    </g>
    <g id="ytick_5">
     <g id="line2d_23">
      <path d="M 48.929688 187.114346 
L 1137.943438 187.114346 
" clip-path="url(#pc78ca46ac8)" style="fill: none; stroke: #808080; stroke-opacity: 0.3; stroke-linecap: round"/>
     </g>
     <g id="line2d_24"/>
     <g id="text_13">
      <!-- 5 -->
      <g style="fill: #262626" transform="translate(36.36875 190.693252) scale(0.1 -0.1)">
       <use xlink:href="#ArialMT-35"/>
      </g>
     </g>
    </g>
    <g id="ytick_6">
     <g id="line2d_25">
      <path d="M 48.929688 142.855586 
L 1137.943438 142.855586 
" clip-path="url(#pc78ca46ac8)" style="fill: none; stroke: #808080; stroke-opacity: 0.3; stroke-linecap: round"/>
     </g>
     <g id="line2d_26"/>
     <g id="text_14">
      <!-- 6 -->
      <g style="fill: #262626" transform="translate(36.36875 146.434492) scale(0.1 -0.1)">
       <use xlink:href="#ArialMT-36"/>
      </g>
     </g>
    </g>
    <g id="ytick_7">
     <g id="line2d_27">
      <path d="M 48.929688 98.596826 
L 1137.943438 98.596826 
" clip-path="url(#pc78ca46ac8)" style="fill: none; stroke: #808080; stroke-opacity: 0.3; stroke-linecap: round"/>
     </g>
     <g id="line2d_28"/>
     <g id="text_15">
      <!-- 7 -->
      <g style="fill: #262626" transform="translate(36.36875 102.175732) scale(0.1 -0.1)">
       <use xlink:href="#ArialMT-37"/>
      </g>
     </g>
    </g>
    <g id="ytick_8">
     <g id="line2d_29">
      <path d="M 48.929688 54.338066 
L 1137.943438 54.338066 
" clip-path="url(#pc78ca46ac8)" style="fill: none; stroke: #808080; stroke-opacity: 0.3; stroke-linecap: round"/>
     </g>
     <g id="line2d_30"/>
     <g id="text_16">
      <!-- 8 -->
      <g style="fill: #262626" transform="translate(36.36875 57.916972) scale(0.1 -0.1)">
       <defs>
        <path id="ArialMT-38" d="M 1131 2484 
Q 781 2613 612 2850 
Q 444 3088 444 3419 
Q 444 3919 803 4259 
Q 1163 4600 1759 4600 
Q 2359 4600 2725 4251 
Q 3091 3903 3091 3403 
Q 3091 3084 2923 2848 
Q 2756 2613 2416 2484 
Q 2838 2347 3058 2040 
Q 3278 1734 3278 1309 
Q 3278 722 2862 322 
Q 2447 -78 1769 -78 
Q 1091 -78 675 323 
Q 259 725 259 1325 
Q 259 1772 486 2073 
Q 713 2375 1131 2484 
z
M 1019 3438 
Q 1019 3113 1228 2906 
Q 1438 2700 1772 2700 
Q 2097 2700 2305 2904 
Q 2513 3109 2513 3406 
Q 2513 3716 2298 3927 
Q 2084 4138 1766 4138 
Q 1444 4138 1231 3931 
Q 1019 3725 1019 3438 
z
M 838 1322 
Q 838 1081 952 856 
Q 1066 631 1291 507 
Q 1516 384 1775 384 
Q 2178 384 2440 643 
Q 2703 903 2703 1303 
Q 2703 1709 2433 1975 
Q 2163 2241 1756 2241 
Q 1359 2241 1098 1978 
Q 838 1716 838 1322 
z
" transform="scale(0.015625)"/>
       </defs>
       <use xlink:href="#ArialMT-38"/>
      </g>
     </g>
    </g>
    <g id="text_17">
     <!-- Daily Occurrences -->
     <g style="fill: #262626" transform="translate(29.843125 258.255288) rotate(-90) scale(0.12 -0.12)">
      <defs>
       <path id="ArialMT-69" d="M 425 3934 
L 425 4581 
L 988 4581 
L 988 3934 
L 425 3934 
z
M 425 0 
L 425 3319 
L 988 3319 
L 988 0 
L 425 0 
z
" transform="scale(0.015625)"/>
       <path id="ArialMT-6c" d="M 409 0 
L 409 4581 
L 972 4581 
L 972 0 
L 409 0 
z
" transform="scale(0.015625)"/>
       <path id="ArialMT-79" d="M 397 -1278 
L 334 -750 
Q 519 -800 656 -800 
Q 844 -800 956 -737 
Q 1069 -675 1141 -563 
Q 1194 -478 1313 -144 
Q 1328 -97 1363 -6 
L 103 3319 
L 709 3319 
L 1400 1397 
Q 1534 1031 1641 628 
Q 1738 1016 1872 1384 
L 2581 3319 
L 3144 3319 
L 1881 -56 
Q 1678 -603 1566 -809 
Q 1416 -1088 1222 -1217 
Q 1028 -1347 759 -1347 
Q 597 -1347 397 -1278 
z
" transform="scale(0.015625)"/>
       <path id="ArialMT-20" transform="scale(0.015625)"/>
       <path id="ArialMT-4f" d="M 309 2231 
Q 309 3372 921 4017 
Q 1534 4663 2503 4663 
Q 3138 4663 3647 4359 
Q 4156 4056 4423 3514 
Q 4691 2972 4691 2284 
Q 4691 1588 4409 1038 
Q 4128 488 3612 205 
Q 3097 -78 2500 -78 
Q 1853 -78 1343 234 
Q 834 547 571 1087 
Q 309 1628 309 2231 
z
M 934 2222 
Q 934 1394 1379 917 
Q 1825 441 2497 441 
Q 3181 441 3623 922 
Q 4066 1403 4066 2288 
Q 4066 2847 3877 3264 
Q 3688 3681 3323 3911 
Q 2959 4141 2506 4141 
Q 1863 4141 1398 3698 
Q 934 3256 934 2222 
z
" transform="scale(0.015625)"/>
       <path id="ArialMT-63" d="M 2588 1216 
L 3141 1144 
Q 3050 572 2676 248 
Q 2303 -75 1759 -75 
Q 1078 -75 664 370 
Q 250 816 250 1647 
Q 250 2184 428 2587 
Q 606 2991 970 3192 
Q 1334 3394 1763 3394 
Q 2303 3394 2647 3120 
Q 2991 2847 3088 2344 
L 2541 2259 
Q 2463 2594 2264 2762 
Q 2066 2931 1784 2931 
Q 1359 2931 1093 2626 
Q 828 2322 828 1663 
Q 828 994 1084 691 
Q 1341 388 1753 388 
Q 2084 388 2306 591 
Q 2528 794 2588 1216 
z
" transform="scale(0.015625)"/>
       <path id="ArialMT-75" d="M 2597 0 
L 2597 488 
Q 2209 -75 1544 -75 
Q 1250 -75 995 37 
Q 741 150 617 320 
Q 494 491 444 738 
Q 409 903 409 1263 
L 409 3319 
L 972 3319 
L 972 1478 
Q 972 1038 1006 884 
Q 1059 663 1231 536 
Q 1403 409 1656 409 
Q 1909 409 2131 539 
Q 2353 669 2445 892 
Q 2538 1116 2538 1541 
L 2538 3319 
L 3100 3319 
L 3100 0 
L 2597 0 
z
" transform="scale(0.015625)"/>
       <path id="ArialMT-72" d="M 416 0 
L 416 3319 
L 922 3319 
L 922 2816 
Q 1116 3169 1280 3281 
Q 1444 3394 1641 3394 
Q 1925 3394 2219 3213 
L 2025 2691 
Q 1819 2813 1613 2813 
Q 1428 2813 1281 2702 
Q 1134 2591 1072 2394 
Q 978 2094 978 1738 
L 978 0 
L 416 0 
z
" transform="scale(0.015625)"/>
       <path id="ArialMT-6e" d="M 422 0 
L 422 3319 
L 928 3319 
L 928 2847 
Q 1294 3394 1984 3394 
Q 2284 3394 2536 3286 
Q 2788 3178 2913 3003 
Q 3038 2828 3088 2588 
Q 3119 2431 3119 2041 
L 3119 0 
L 2556 0 
L 2556 2019 
Q 2556 2363 2490 2533 
Q 2425 2703 2258 2804 
Q 2091 2906 1866 2906 
Q 1506 2906 1245 2678 
Q 984 2450 984 1813 
L 984 0 
L 422 0 
z
" transform="scale(0.015625)"/>
       <path id="ArialMT-73" d="M 197 991 
L 753 1078 
Q 800 744 1014 566 
Q 1228 388 1613 388 
Q 2000 388 2187 545 
Q 2375 703 2375 916 
Q 2375 1106 2209 1216 
Q 2094 1291 1634 1406 
Q 1016 1563 777 1677 
Q 538 1791 414 1992 
Q 291 2194 291 2438 
Q 291 2659 392 2848 
Q 494 3038 669 3163 
Q 800 3259 1026 3326 
Q 1253 3394 1513 3394 
Q 1903 3394 2198 3281 
Q 2494 3169 2634 2976 
Q 2775 2784 2828 2463 
L 2278 2388 
Q 2241 2644 2061 2787 
Q 1881 2931 1553 2931 
Q 1166 2931 1000 2803 
Q 834 2675 834 2503 
Q 834 2394 903 2306 
Q 972 2216 1119 2156 
Q 1203 2125 1616 2013 
Q 2213 1853 2448 1751 
Q 2684 1650 2818 1456 
Q 2953 1263 2953 975 
Q 2953 694 2789 445 
Q 2625 197 2315 61 
Q 2006 -75 1616 -75 
Q 969 -75 630 194 
Q 291 463 197 991 
z
" transform="scale(0.015625)"/>
      </defs>
      <use xlink:href="#ArialMT-44"/>
      <use xlink:href="#ArialMT-61" x="72.216797"/>
      <use xlink:href="#ArialMT-69" x="127.832031"/>
      <use xlink:href="#ArialMT-6c" x="150.048828"/>
      <use xlink:href="#ArialMT-79" x="172.265625"/>
      <use xlink:href="#ArialMT-20" x="222.265625"/>
      <use xlink:href="#ArialMT-4f" x="250.048828"/>
      <use xlink:href="#ArialMT-63" x="327.832031"/>
      <use xlink:href="#ArialMT-63" x="377.832031"/>
      <use xlink:href="#ArialMT-75" x="427.832031"/>
      <use xlink:href="#ArialMT-72" x="483.447266"/>
      <use xlink:href="#ArialMT-72" x="516.748047"/>
      <use xlink:href="#ArialMT-65" x="550.048828"/>
      <use xlink:href="#ArialMT-6e" x="605.664062"/>
      <use xlink:href="#ArialMT-63" x="661.279297"/>
      <use xlink:href="#ArialMT-65" x="711.279297"/>
      <use xlink:href="#ArialMT-73" x="766.894531"/>
     </g>
    </g>
   </g>
   <g id="line2d_31">
    <path d="M 98.430313 187.114346 
L 108.380187 319.890625 
L 128.279936 319.890625 
L 158.129559 364.149385 
L 222.803742 364.149385 
L 257.628302 142.855586 
L 277.528051 275.631866 
L 282.502988 364.149385 
L 297.4278 319.890625 
L 337.227297 364.149385 
L 342.202235 364.149385 
L 347.177172 364.149385 
L 362.101983 364.149385 
L 372.051858 364.149385 
L 377.026795 364.149385 
L 386.976669 364.149385 
L 411.851355 364.149385 
L 451.650853 319.890625 
L 456.62579 364.149385 
L 461.600727 364.149385 
L 466.575664 275.631866 
L 481.500476 319.890625 
L 496.425287 364.149385 
L 531.249848 319.890625 
L 536.224785 319.890625 
L 566.074408 364.149385 
L 576.024282 319.890625 
L 580.99922 364.149385 
L 585.974157 364.149385 
L 600.898968 364.149385 
L 605.873905 319.890625 
L 610.848843 364.149385 
L 615.82378 231.373106 
L 635.723529 364.149385 
L 640.698466 364.149385 
L 665.573152 319.890625 
L 670.548089 364.149385 
L 675.523026 364.149385 
L 680.497963 364.149385 
L 705.372649 319.890625 
L 745.172147 319.890625 
L 765.071895 275.631866 
L 770.046833 364.149385 
L 775.02177 319.890625 
L 784.971644 319.890625 
L 809.84633 319.890625 
L 819.796204 319.890625 
L 849.645828 319.890625 
L 924.269885 319.890625 
L 934.21976 364.149385 
L 939.194697 275.631866 
L 959.094446 364.149385 
L 978.994194 364.149385 
L 993.919006 364.149385 
L 998.893943 364.149385 
L 1078.492938 319.890625 
L 1088.442812 364.149385 
" clip-path="url(#pc78ca46ac8)" style="fill: none; stroke: #ff6b6b; stroke-width: 2; stroke-linecap: round"/>
    <defs>
     <path id="mf46f6402a9" d="M 0 2 
C 0.530406 2 1.03916 1.789267 1.414214 1.414214 
C 1.789267 1.03916 2 0.530406 2 0 
C 2 -0.530406 1.789267 -1.03916 1.414214 -1.414214 
C 1.03916 -1.789267 0.530406 -2 0 -2 
C -0.530406 -2 -1.03916 -1.789267 -1.414214 -1.414214 
C -1.789267 -1.03916 -2 -0.530406 -2 0 
C -2 0.530406 -1.789267 1.03916 -1.414214 1.414214 
C -1.03916 1.789267 -0.530406 2 0 2 
z
"/>
    </defs>
    <g clip-path="url(#pc78ca46ac8)">
     <use xlink:href="#mf46f6402a9" x="98.430313" y="187.114346" style="fill: #ff6b6b"/>
     <use xlink:href="#mf46f6402a9" x="108.380187" y="319.890625" style="fill: #ff6b6b"/>
     <use xlink:href="#mf46f6402a9" x="128.279936" y="319.890625" style="fill: #ff6b6b"/>
     <use xlink:href="#mf46f6402a9" x="158.129559" y="364.149385" style="fill: #ff6b6b"/>
     <use xlink:href="#mf46f6402a9" x="222.803742" y="364.149385" style="fill: #ff6b6b"/>
     <use xlink:href="#mf46f6402a9" x="257.628302" y="142.855586" style="fill: #ff6b6b"/>
     <use xlink:href="#mf46f6402a9" x="277.528051" y="275.631866" style="fill: #ff6b6b"/>
     <use xlink:href="#mf46f6402a9" x="282.502988" y="364.149385" style="fill: #ff6b6b"/>
     <use xlink:href="#mf46f6402a9" x="297.4278" y="319.890625" style="fill: #ff6b6b"/>
     <use xlink:href="#mf46f6402a9" x="337.227297" y="364.149385" style="fill: #ff6b6b"/>
     <use xlink:href="#mf46f6402a9" x="342.202235" y="364.149385" style="fill: #ff6b6b"/>
     <use xlink:href="#mf46f6402a9" x="347.177172" y="364.149385" style="fill: #ff6b6b"/>
     <use xlink:href="#mf46f6402a9" x="362.101983" y="364.149385" style="fill: #ff6b6b"/>
     <use xlink:href="#mf46f6402a9" x="372.051858" y="364.149385" style="fill: #ff6b6b"/>
     <use xlink:href="#mf46f6402a9" x="377.026795" y="364.149385" style="fill: #ff6b6b"/>
     <use xlink:href="#mf46f6402a9" x="386.976669" y="364.149385" style="fill: #ff6b6b"/>
     <use xlink:href="#mf46f6402a9" x="411.851355" y="364.149385" style="fill: #ff6b6b"/>
     <use xlink:href="#mf46f6402a9" x="451.650853" y="319.890625" style="fill: #ff6b6b"/>
     <use xlink:href="#mf46f6402a9" x="456.62579" y="364.149385" style="fill: #ff6b6b"/>
     <use xlink:href="#mf46f6402a9" x="461.600727" y="364.149385" style="fill: #ff6b6b"/>
     <use xlink:href="#mf46f6402a9" x="466.575664" y="275.631866" style="fill: #ff6b6b"/>
     <use xlink:href="#mf46f6402a9" x="481.500476" y="319.890625" style="fill: #ff6b6b"/>
     <use xlink:href="#mf46f6402a9" x="496.425287" y="364.149385" style="fill: #ff6b6b"/>
     <use xlink:href="#mf46f6402a9" x="531.249848" y="319.890625" style="fill: #ff6b6b"/>
     <use xlink:href="#mf46f6402a9" x="536.224785" y="319.890625" style="fill: #ff6b6b"/>
     <use xlink:href="#mf46f6402a9" x="566.074408" y="364.149385" style="fill: #ff6b6b"/>
     <use xlink:href="#mf46f6402a9" x="576.024282" y="319.890625" style="fill: #ff6b6b"/>
     <use xlink:href="#mf46f6402a9" x="580.99922" y="364.149385" style="fill: #ff6b6b"/>
     <use xlink:href="#mf46f6402a9" x="585.974157" y="364.149385" style="fill: #ff6b6b"/>
     <use xlink:href="#mf46f6402a9" x="600.898968" y="364.149385" style="fill: #ff6b6b"/>
     <use xlink:href="#mf46f6402a9" x="605.873905" y="319.890625" style="fill: #ff6b6b"/>
     <use xlink:href="#mf46f6402a9" x="610.848843" y="364.149385" style="fill: #ff6b6b"/>
     <use xlink:href="#mf46f6402a9" x="615.82378" y="231.373106" style="fill: #ff6b6b"/>
     <use xlink:href="#mf46f6402a9" x="635.723529" y="364.149385" style="fill: #ff6b6b"/>
     <use xlink:href="#mf46f6402a9" x="640.698466" y="364.149385" style="fill: #ff6b6b"/>
     <use xlink:href="#mf46f6402a9" x="665.573152" y="319.890625" style="fill: #ff6b6b"/>
     <use xlink:href="#mf46f6402a9" x="670.548089" y="364.149385" style="fill: #ff6b6b"/>
     <use xlink:href="#mf46f6402a9" x="675.523026" y="364.149385" style="fill: #ff6b6b"/>
     <use xlink:href="#mf46f6402a9" x="680.497963" y="364.149385" style="fill: #ff6b6b"/>
     <use xlink:href="#mf46f6402a9" x="705.372649" y="319.890625" style="fill: #ff6b6b"/>
     <use xlink:href="#mf46f6402a9" x="745.172147" y="319.890625" style="fill: #ff6b6b"/>
     <use xlink:href="#mf46f6402a9" x="765.071895" y="275.631866" style="fill: #ff6b6b"/>
     <use xlink:href="#mf46f6402a9" x="770.046833" y="364.149385" style="fill: #ff6b6b"/>
     <use xlink:href="#mf46f6402a9" x="775.02177" y="319.890625" style="fill: #ff6b6b"/>
     <use xlink:href="#mf46f6402a9" x="784.971644" y="319.890625" style="fill: #ff6b6b"/>
     <use xlink:href="#mf46f6402a9" x="809.84633" y="319.890625" style="fill: #ff6b6b"/>
     <use xlink:href="#mf46f6402a9" x="819.796204" y="319.890625" style="fill: #ff6b6b"/>
     <use xlink:href="#mf46f6402a9" x="849.645828" y="319.890625" style="fill: #ff6b6b"/>
     <use xlink:href="#mf46f6402a9" x="924.269885" y="319.890625" style="fill: #ff6b6b"/>
     <use xlink:href="#mf46f6402a9" x="934.21976" y="364.149385" style="fill: #ff6b6b"/>
     <use xlink:href="#mf46f6402a9" x="939.194697" y="275.631866" style="fill: #ff6b6b"/>
     <use xlink:href="#mf46f6402a9" x="959.094446" y="364.149385" style="fill: #ff6b6b"/>
     <use xlink:href="#mf46f6402a9" x="978.994194" y="364.149385" style="fill: #ff6b6b"/>
     <use xlink:href="#mf46f6402a9" x="993.919006" y="364.149385" style="fill: #ff6b6b"/>
     <use xlink:href="#mf46f6402a9" x="998.893943" y="364.149385" style="fill: #ff6b6b"/>
     <use xlink:href="#mf46f6402a9" x="1078.492938" y="319.890625" style="fill: #ff6b6b"/>
     <use xlink:href="#mf46f6402a9" x="1088.442812" y="364.149385" style="fill: #ff6b6b"/>
    </g>
   </g>
   <g id="line2d_32">
    <path d="M 1048.643315 142.855586 
L 1068.543064 319.890625 
L 1073.518001 54.338066 
L 1078.492938 319.890625 
L 1083.467875 364.149385 
L 1088.442812 364.149385 
" clip-path="url(#pc78ca46ac8)" style="fill: none; stroke: #4ecdc4; stroke-width: 2; stroke-linecap: round"/>
    <defs>
     <path id="m6f296b022d" d="M 0 2 
C 0.530406 2 1.03916 1.789267 1.414214 1.414214 
C 1.789267 1.03916 2 0.530406 2 0 
C 2 -0.530406 1.789267 -1.03916 1.414214 -1.414214 
C 1.03916 -1.789267 0.530406 -2 0 -2 
C -0.530406 -2 -1.03916 -1.789267 -1.414214 -1.414214 
C -1.789267 -1.03916 -2 -0.530406 -2 0 
C -2 0.530406 -1.789267 1.03916 -1.414214 1.414214 
C -1.03916 1.789267 -0.530406 2 0 2 
z
"/>
    </defs>
    <g clip-path="url(#pc78ca46ac8)">
     <use xlink:href="#m6f296b022d" x="1048.643315" y="142.855586" style="fill: #4ecdc4"/>
     <use xlink:href="#m6f296b022d" x="1068.543064" y="319.890625" style="fill: #4ecdc4"/>
     <use xlink:href="#m6f296b022d" x="1073.518001" y="54.338066" style="fill: #4ecdc4"/>
     <use xlink:href="#m6f296b022d" x="1078.492938" y="319.890625" style="fill: #4ecdc4"/>
     <use xlink:href="#m6f296b022d" x="1083.467875" y="364.149385" style="fill: #4ecdc4"/>
     <use xlink:href="#m6f296b022d" x="1088.442812" y="364.149385" style="fill: #4ecdc4"/>
    </g>
   </g>
   <g id="patch_3">
    <path d="M 48.929688 379.639951 
L 48.929688 38.8475 
" style="fill: none"/>
   </g>
   <g id="patch_4">
    <path d="M 1137.943438 379.639951 
L 1137.943438 38.8475 
" style="fill: none"/>
   </g>
   <g id="patch_5">
    <path d="M 48.929688 379.639951 
L 1137.943437 379.639951 
" style="fill: none"/>
   </g>
   <g id="patch_6">
    <path d="M 48.929688 38.8475 
L 1137.943437 38.8475 
" style="fill: none"/>
   </g>
   <g id="text_18">
    <!-- Daily Word Usage Over Time: "Joe", "Epstein" -->
    <g style="fill: #262626" transform="translate(417.176563 18.8475) scale(0.16 -0.16)">
     <defs>
      <path id="Arial-BoldMT-44" d="M 463 4581 
L 2153 4581 
Q 2725 4581 3025 4494 
Q 3428 4375 3715 4072 
Q 4003 3769 4153 3330 
Q 4303 2891 4303 2247 
Q 4303 1681 4163 1272 
Q 3991 772 3672 463 
Q 3431 228 3022 97 
Q 2716 0 2203 0 
L 463 0 
L 463 4581 
z
M 1388 3806 
L 1388 772 
L 2078 772 
Q 2466 772 2638 816 
Q 2863 872 3011 1006 
Q 3159 1141 3253 1448 
Q 3347 1756 3347 2288 
Q 3347 2819 3253 3103 
Q 3159 3388 2990 3547 
Q 2822 3706 2563 3763 
Q 2369 3806 1803 3806 
L 1388 3806 
z
" transform="scale(0.015625)"/>
      <path id="Arial-BoldMT-61" d="M 1116 2306 
L 319 2450 
Q 453 2931 781 3162 
Q 1109 3394 1756 3394 
Q 2344 3394 2631 3255 
Q 2919 3116 3036 2902 
Q 3153 2688 3153 2116 
L 3144 1091 
Q 3144 653 3186 445 
Q 3228 238 3344 0 
L 2475 0 
Q 2441 88 2391 259 
Q 2369 338 2359 363 
Q 2134 144 1878 34 
Q 1622 -75 1331 -75 
Q 819 -75 523 203 
Q 228 481 228 906 
Q 228 1188 362 1408 
Q 497 1628 739 1745 
Q 981 1863 1438 1950 
Q 2053 2066 2291 2166 
L 2291 2253 
Q 2291 2506 2166 2614 
Q 2041 2722 1694 2722 
Q 1459 2722 1328 2630 
Q 1197 2538 1116 2306 
z
M 2291 1594 
Q 2122 1538 1756 1459 
Q 1391 1381 1278 1306 
Q 1106 1184 1106 997 
Q 1106 813 1243 678 
Q 1381 544 1594 544 
Q 1831 544 2047 700 
Q 2206 819 2256 991 
Q 2291 1103 2291 1419 
L 2291 1594 
z
" transform="scale(0.015625)"/>
      <path id="Arial-BoldMT-69" d="M 459 3769 
L 459 4581 
L 1338 4581 
L 1338 3769 
L 459 3769 
z
M 459 0 
L 459 3319 
L 1338 3319 
L 1338 0 
L 459 0 
z
" transform="scale(0.015625)"/>
      <path id="Arial-BoldMT-6c" d="M 459 0 
L 459 4581 
L 1338 4581 
L 1338 0 
L 459 0 
z
" transform="scale(0.015625)"/>
      <path id="Arial-BoldMT-79" d="M 44 3319 
L 978 3319 
L 1772 963 
L 2547 3319 
L 3456 3319 
L 2284 125 
L 2075 -453 
Q 1959 -744 1854 -897 
Q 1750 -1050 1614 -1145 
Q 1478 -1241 1279 -1294 
Q 1081 -1347 831 -1347 
Q 578 -1347 334 -1294 
L 256 -606 
Q 463 -647 628 -647 
Q 934 -647 1081 -467 
Q 1228 -288 1306 -9 
L 44 3319 
z
" transform="scale(0.015625)"/>
      <path id="Arial-BoldMT-20" transform="scale(0.015625)"/>
      <path id="Arial-BoldMT-57" d="M 1116 0 
L 22 4581 
L 969 4581 
L 1659 1434 
L 2497 4581 
L 3597 4581 
L 4400 1381 
L 5103 4581 
L 6034 4581 
L 4922 0 
L 3941 0 
L 3028 3425 
L 2119 0 
L 1116 0 
z
" transform="scale(0.015625)"/>
      <path id="Arial-BoldMT-6f" d="M 256 1706 
Q 256 2144 472 2553 
Q 688 2963 1083 3178 
Q 1478 3394 1966 3394 
Q 2719 3394 3200 2905 
Q 3681 2416 3681 1669 
Q 3681 916 3195 420 
Q 2709 -75 1972 -75 
Q 1516 -75 1102 131 
Q 688 338 472 736 
Q 256 1134 256 1706 
z
M 1156 1659 
Q 1156 1166 1390 903 
Q 1625 641 1969 641 
Q 2313 641 2545 903 
Q 2778 1166 2778 1666 
Q 2778 2153 2545 2415 
Q 2313 2678 1969 2678 
Q 1625 2678 1390 2415 
Q 1156 2153 1156 1659 
z
" transform="scale(0.015625)"/>
      <path id="Arial-BoldMT-72" d="M 1300 0 
L 422 0 
L 422 3319 
L 1238 3319 
L 1238 2847 
Q 1447 3181 1614 3287 
Q 1781 3394 1994 3394 
Q 2294 3394 2572 3228 
L 2300 2463 
Q 2078 2606 1888 2606 
Q 1703 2606 1575 2504 
Q 1447 2403 1373 2137 
Q 1300 1872 1300 1025 
L 1300 0 
z
" transform="scale(0.015625)"/>
      <path id="Arial-BoldMT-64" d="M 3503 0 
L 2688 0 
L 2688 488 
Q 2484 203 2207 64 
Q 1931 -75 1650 -75 
Q 1078 -75 670 386 
Q 263 847 263 1672 
Q 263 2516 659 2955 
Q 1056 3394 1663 3394 
Q 2219 3394 2625 2931 
L 2625 4581 
L 3503 4581 
L 3503 0 
z
M 1159 1731 
Q 1159 1200 1306 963 
Q 1519 619 1900 619 
Q 2203 619 2415 876 
Q 2628 1134 2628 1647 
Q 2628 2219 2422 2470 
Q 2216 2722 1894 2722 
Q 1581 2722 1370 2473 
Q 1159 2225 1159 1731 
z
" transform="scale(0.015625)"/>
      <path id="Arial-BoldMT-55" d="M 459 4581 
L 1384 4581 
L 1384 2100 
Q 1384 1509 1419 1334 
Q 1478 1053 1701 883 
Q 1925 713 2313 713 
Q 2706 713 2906 873 
Q 3106 1034 3147 1268 
Q 3188 1503 3188 2047 
L 3188 4581 
L 4113 4581 
L 4113 2175 
Q 4113 1350 4038 1009 
Q 3963 669 3761 434 
Q 3559 200 3221 61 
Q 2884 -78 2341 -78 
Q 1684 -78 1345 73 
Q 1006 225 809 467 
Q 613 709 550 975 
Q 459 1369 459 2138 
L 459 4581 
z
" transform="scale(0.015625)"/>
      <path id="Arial-BoldMT-73" d="M 150 947 
L 1031 1081 
Q 1088 825 1259 692 
Q 1431 559 1741 559 
Q 2081 559 2253 684 
Q 2369 772 2369 919 
Q 2369 1019 2306 1084 
Q 2241 1147 2013 1200 
Q 950 1434 666 1628 
Q 272 1897 272 2375 
Q 272 2806 612 3100 
Q 953 3394 1669 3394 
Q 2350 3394 2681 3172 
Q 3013 2950 3138 2516 
L 2309 2363 
Q 2256 2556 2107 2659 
Q 1959 2763 1684 2763 
Q 1338 2763 1188 2666 
Q 1088 2597 1088 2488 
Q 1088 2394 1175 2328 
Q 1294 2241 1995 2081 
Q 2697 1922 2975 1691 
Q 3250 1456 3250 1038 
Q 3250 581 2869 253 
Q 2488 -75 1741 -75 
Q 1063 -75 667 200 
Q 272 475 150 947 
z
" transform="scale(0.015625)"/>
      <path id="Arial-BoldMT-67" d="M 378 -219 
L 1381 -341 
Q 1406 -516 1497 -581 
Q 1622 -675 1891 -675 
Q 2234 -675 2406 -572 
Q 2522 -503 2581 -350 
Q 2622 -241 2622 53 
L 2622 538 
Q 2228 0 1628 0 
Q 959 0 569 566 
Q 263 1013 263 1678 
Q 263 2513 664 2953 
Q 1066 3394 1663 3394 
Q 2278 3394 2678 2853 
L 2678 3319 
L 3500 3319 
L 3500 341 
Q 3500 -247 3403 -537 
Q 3306 -828 3131 -993 
Q 2956 -1159 2664 -1253 
Q 2372 -1347 1925 -1347 
Q 1081 -1347 728 -1058 
Q 375 -769 375 -325 
Q 375 -281 378 -219 
z
M 1163 1728 
Q 1163 1200 1367 954 
Q 1572 709 1872 709 
Q 2194 709 2416 961 
Q 2638 1213 2638 1706 
Q 2638 2222 2425 2472 
Q 2213 2722 1888 2722 
Q 1572 2722 1367 2476 
Q 1163 2231 1163 1728 
z
" transform="scale(0.015625)"/>
      <path id="Arial-BoldMT-65" d="M 2381 1056 
L 3256 909 
Q 3088 428 2723 176 
Q 2359 -75 1813 -75 
Q 947 -75 531 491 
Q 203 944 203 1634 
Q 203 2459 634 2926 
Q 1066 3394 1725 3394 
Q 2466 3394 2894 2905 
Q 3322 2416 3303 1406 
L 1103 1406 
Q 1113 1016 1316 798 
Q 1519 581 1822 581 
Q 2028 581 2168 693 
Q 2309 806 2381 1056 
z
M 2431 1944 
Q 2422 2325 2234 2523 
Q 2047 2722 1778 2722 
Q 1491 2722 1303 2513 
Q 1116 2303 1119 1944 
L 2431 1944 
z
" transform="scale(0.015625)"/>
      <path id="Arial-BoldMT-4f" d="M 278 2263 
Q 278 2963 488 3438 
Q 644 3788 914 4066 
Q 1184 4344 1506 4478 
Q 1934 4659 2494 4659 
Q 3506 4659 4114 4031 
Q 4722 3403 4722 2284 
Q 4722 1175 4119 548 
Q 3516 -78 2506 -78 
Q 1484 -78 881 545 
Q 278 1169 278 2263 
z
M 1231 2294 
Q 1231 1516 1590 1114 
Q 1950 713 2503 713 
Q 3056 713 3411 1111 
Q 3766 1509 3766 2306 
Q 3766 3094 3420 3481 
Q 3075 3869 2503 3869 
Q 1931 3869 1581 3476 
Q 1231 3084 1231 2294 
z
" transform="scale(0.015625)"/>
      <path id="Arial-BoldMT-76" d="M 1372 0 
L 34 3319 
L 956 3319 
L 1581 1625 
L 1763 1059 
Q 1834 1275 1853 1344 
Q 1897 1484 1947 1625 
L 2578 3319 
L 3481 3319 
L 2163 0 
L 1372 0 
z
" transform="scale(0.015625)"/>
      <path id="Arial-BoldMT-54" d="M 1497 0 
L 1497 3806 
L 138 3806 
L 138 4581 
L 3778 4581 
L 3778 3806 
L 2422 3806 
L 2422 0 
L 1497 0 
z
" transform="scale(0.015625)"/>
      <path id="Arial-BoldMT-6d" d="M 394 3319 
L 1203 3319 
L 1203 2866 
Q 1638 3394 2238 3394 
Q 2556 3394 2790 3262 
Q 3025 3131 3175 2866 
Q 3394 3131 3647 3262 
Q 3900 3394 4188 3394 
Q 4553 3394 4806 3245 
Q 5059 3097 5184 2809 
Q 5275 2597 5275 2122 
L 5275 0 
L 4397 0 
L 4397 1897 
Q 4397 2391 4306 2534 
Q 4184 2722 3931 2722 
Q 3747 2722 3584 2609 
Q 3422 2497 3350 2280 
Q 3278 2063 3278 1594 
L 3278 0 
L 2400 0 
L 2400 1819 
Q 2400 2303 2353 2443 
Q 2306 2584 2207 2653 
Q 2109 2722 1941 2722 
Q 1738 2722 1575 2612 
Q 1413 2503 1342 2297 
Q 1272 2091 1272 1613 
L 1272 0 
L 394 0 
L 394 3319 
z
" transform="scale(0.015625)"/>
      <path id="Arial-BoldMT-3a" d="M 628 2441 
L 628 3319 
L 1506 3319 
L 1506 2441 
L 628 2441 
z
M 628 0 
L 628 878 
L 1506 878 
L 1506 0 
L 628 0 
z
" transform="scale(0.015625)"/>
      <path id="Arial-BoldMT-22" d="M 516 2953 
L 350 3806 
L 350 4581 
L 1306 4581 
L 1306 3806 
L 1163 2953 
L 516 2953 
z
M 1925 2953 
L 1759 3806 
L 1759 4581 
L 2716 4581 
L 2716 3806 
L 2572 2953 
L 1925 2953 
z
" transform="scale(0.015625)"/>
      <path id="Arial-BoldMT-4a" d="M 2119 4581 
L 3041 4581 
L 3041 1681 
Q 3041 1113 2941 806 
Q 2806 406 2453 164 
Q 2100 -78 1522 -78 
Q 844 -78 478 301 
Q 113 681 109 1416 
L 981 1516 
Q 997 1122 1097 959 
Q 1247 713 1553 713 
Q 1863 713 1991 889 
Q 2119 1066 2119 1622 
L 2119 4581 
z
" transform="scale(0.015625)"/>
      <path id="Arial-BoldMT-2c" d="M 438 878 
L 1316 878 
L 1316 250 
Q 1316 -131 1250 -351 
Q 1184 -572 1001 -747 
Q 819 -922 538 -1022 
L 366 -659 
Q 631 -572 743 -419 
Q 856 -266 863 0 
L 438 0 
L 438 878 
z
" transform="scale(0.015625)"/>
      <path id="Arial-BoldMT-45" d="M 466 0 
L 466 4581 
L 3863 4581 
L 3863 3806 
L 1391 3806 
L 1391 2791 
L 3691 2791 
L 3691 2019 
L 1391 2019 
L 1391 772 
L 3950 772 
L 3950 0 
L 466 0 
z
" transform="scale(0.015625)"/>
      <path id="Arial-BoldMT-70" d="M 434 3319 
L 1253 3319 
L 1253 2831 
Q 1413 3081 1684 3237 
Q 1956 3394 2288 3394 
Q 2866 3394 3269 2941 
Q 3672 2488 3672 1678 
Q 3672 847 3265 386 
Q 2859 -75 2281 -75 
Q 2006 -75 1782 34 
Q 1559 144 1313 409 
L 1313 -1263 
L 434 -1263 
L 434 3319 
z
M 1303 1716 
Q 1303 1156 1525 889 
Q 1747 622 2066 622 
Q 2372 622 2575 867 
Q 2778 1113 2778 1672 
Q 2778 2194 2568 2447 
Q 2359 2700 2050 2700 
Q 1728 2700 1515 2451 
Q 1303 2203 1303 1716 
z
" transform="scale(0.015625)"/>
      <path id="Arial-BoldMT-74" d="M 1981 3319 
L 1981 2619 
L 1381 2619 
L 1381 1281 
Q 1381 875 1398 808 
Q 1416 741 1477 697 
Q 1538 653 1625 653 
Q 1747 653 1978 738 
L 2053 56 
Q 1747 -75 1359 -75 
Q 1122 -75 931 4 
Q 741 84 652 211 
Q 563 338 528 553 
Q 500 706 500 1172 
L 500 2619 
L 97 2619 
L 97 3319 
L 500 3319 
L 500 3978 
L 1381 4491 
L 1381 3319 
L 1981 3319 
z
" transform="scale(0.015625)"/>
      <path id="Arial-BoldMT-6e" d="M 3478 0 
L 2600 0 
L 2600 1694 
Q 2600 2231 2544 2389 
Q 2488 2547 2361 2634 
Q 2234 2722 2056 2722 
Q 1828 2722 1647 2597 
Q 1466 2472 1398 2265 
Q 1331 2059 1331 1503 
L 1331 0 
L 453 0 
L 453 3319 
L 1269 3319 
L 1269 2831 
Q 1703 3394 2363 3394 
Q 2653 3394 2893 3289 
Q 3134 3184 3257 3021 
Q 3381 2859 3429 2653 
Q 3478 2447 3478 2063 
L 3478 0 
z
" transform="scale(0.015625)"/>
     </defs>
     <use xlink:href="#Arial-BoldMT-44"/>
     <use xlink:href="#Arial-BoldMT-61" x="72.216797"/>
     <use xlink:href="#Arial-BoldMT-69" x="127.832031"/>
     <use xlink:href="#Arial-BoldMT-6c" x="155.615234"/>
     <use xlink:href="#Arial-BoldMT-79" x="183.398438"/>
     <use xlink:href="#Arial-BoldMT-20" x="239.013672"/>
     <use xlink:href="#Arial-BoldMT-57" x="266.796875"/>
     <use xlink:href="#Arial-BoldMT-6f" x="359.431641"/>
     <use xlink:href="#Arial-BoldMT-72" x="420.515625"/>
     <use xlink:href="#Arial-BoldMT-64" x="459.431641"/>
     <use xlink:href="#Arial-BoldMT-20" x="520.515625"/>
     <use xlink:href="#Arial-BoldMT-55" x="548.298828"/>
     <use xlink:href="#Arial-BoldMT-73" x="620.515625"/>
     <use xlink:href="#Arial-BoldMT-61" x="676.130859"/>
     <use xlink:href="#Arial-BoldMT-67" x="731.746094"/>
     <use xlink:href="#Arial-BoldMT-65" x="792.830078"/>
     <use xlink:href="#Arial-BoldMT-20" x="848.445312"/>
     <use xlink:href="#Arial-BoldMT-4f" x="876.228516"/>
     <use xlink:href="#Arial-BoldMT-76" x="954.011719"/>
     <use xlink:href="#Arial-BoldMT-65" x="1009.626953"/>
     <use xlink:href="#Arial-BoldMT-72" x="1065.242188"/>
     <use xlink:href="#Arial-BoldMT-20" x="1104.158203"/>
     <use xlink:href="#Arial-BoldMT-54" x="1131.941406"/>
     <use xlink:href="#Arial-BoldMT-69" x="1191.275391"/>
     <use xlink:href="#Arial-BoldMT-6d" x="1219.058594"/>
     <use xlink:href="#Arial-BoldMT-65" x="1307.974609"/>
     <use xlink:href="#Arial-BoldMT-3a" x="1363.589844"/>
     <use xlink:href="#Arial-BoldMT-20" x="1396.890625"/>
     <use xlink:href="#Arial-BoldMT-22" x="1424.673828"/>
     <use xlink:href="#Arial-BoldMT-4a" x="1472.085938"/>
     <use xlink:href="#Arial-BoldMT-6f" x="1527.701172"/>
     <use xlink:href="#Arial-BoldMT-65" x="1588.785156"/>
     <use xlink:href="#Arial-BoldMT-22" x="1644.400391"/>
     <use xlink:href="#Arial-BoldMT-2c" x="1691.8125"/>
     <use xlink:href="#Arial-BoldMT-20" x="1719.595703"/>
     <use xlink:href="#Arial-BoldMT-22" x="1747.378906"/>
     <use xlink:href="#Arial-BoldMT-45" x="1794.791016"/>
     <use xlink:href="#Arial-BoldMT-70" x="1861.490234"/>
     <use xlink:href="#Arial-BoldMT-73" x="1922.574219"/>
     <use xlink:href="#Arial-BoldMT-74" x="1978.189453"/>
     <use xlink:href="#Arial-BoldMT-65" x="2011.490234"/>
     <use xlink:href="#Arial-BoldMT-69" x="2067.105469"/>
     <use xlink:href="#Arial-BoldMT-6e" x="2094.888672"/>
     <use xlink:href="#Arial-BoldMT-22" x="2155.972656"/>
    </g>
   </g>
   <g id="legend_1">
    <g id="line2d_33">
     <path d="M 57.929688 51.505312 
L 67.929688 51.505312 
L 77.929688 51.505312 
" style="fill: none; stroke: #ff6b6b; stroke-width: 2; stroke-linecap: round"/>
     <g>
      <use xlink:href="#mf46f6402a9" x="67.929688" y="51.505312" style="fill: #ff6b6b"/>
     </g>
    </g>
    <g id="text_19">
     <!-- "Joe" -->
     <g style="fill: #262626" transform="translate(85.929688 55.005312) scale(0.1 -0.1)">
      <defs>
       <path id="ArialMT-22" d="M 450 2959 
L 294 3831 
L 294 4581 
L 934 4581 
L 934 3831 
L 794 2959 
L 450 2959 
z
M 1484 2959 
L 1331 3831 
L 1331 4581 
L 1972 4581 
L 1972 3831 
L 1822 2959 
L 1484 2959 
z
" transform="scale(0.015625)"/>
       <path id="ArialMT-4a" d="M 184 1300 
L 731 1375 
Q 753 850 928 656 
Q 1103 463 1413 463 
Q 1641 463 1806 567 
Q 1972 672 2034 851 
Q 2097 1031 2097 1425 
L 2097 4581 
L 2703 4581 
L 2703 1459 
Q 2703 884 2564 568 
Q 2425 253 2123 87 
Q 1822 -78 1416 -78 
Q 813 -78 492 269 
Q 172 616 184 1300 
z
" transform="scale(0.015625)"/>
       <path id="ArialMT-6f" d="M 213 1659 
Q 213 2581 725 3025 
Q 1153 3394 1769 3394 
Q 2453 3394 2887 2945 
Q 3322 2497 3322 1706 
Q 3322 1066 3130 698 
Q 2938 331 2570 128 
Q 2203 -75 1769 -75 
Q 1072 -75 642 372 
Q 213 819 213 1659 
z
M 791 1659 
Q 791 1022 1069 705 
Q 1347 388 1769 388 
Q 2188 388 2466 706 
Q 2744 1025 2744 1678 
Q 2744 2294 2464 2611 
Q 2184 2928 1769 2928 
Q 1347 2928 1069 2612 
Q 791 2297 791 1659 
z
" transform="scale(0.015625)"/>
      </defs>
      <use xlink:href="#ArialMT-22"/>
      <use xlink:href="#ArialMT-4a" x="35.498047"/>
      <use xlink:href="#ArialMT-6f" x="85.498047"/>
      <use xlink:href="#ArialMT-65" x="141.113281"/>
      <use xlink:href="#ArialMT-22" x="196.728516"/>
     </g>
    </g>
    <g id="line2d_34">
     <path d="M 57.929688 65.650625 
L 67.929688 65.650625 
L 77.929688 65.650625 
" style="fill: none; stroke: #4ecdc4; stroke-width: 2; stroke-linecap: round"/>
     <g>
      <use xlink:href="#m6f296b022d" x="67.929688" y="65.650625" style="fill: #4ecdc4"/>
     </g>
    </g>
    <g id="text_20">
     <!-- "Epstein" -->
     <g style="fill: #262626" transform="translate(85.929688 69.150625) scale(0.1 -0.1)">
      <defs>
       <path id="ArialMT-45" d="M 506 0 
L 506 4581 
L 3819 4581 
L 3819 4041 
L 1113 4041 
L 1113 2638 
L 3647 2638 
L 3647 2100 
L 1113 2100 
L 1113 541 
L 3925 541 
L 3925 0 
L 506 0 
z
" transform="scale(0.015625)"/>
       <path id="ArialMT-70" d="M 422 -1272 
L 422 3319 
L 934 3319 
L 934 2888 
Q 1116 3141 1344 3267 
Q 1572 3394 1897 3394 
Q 2322 3394 2647 3175 
Q 2972 2956 3137 2557 
Q 3303 2159 3303 1684 
Q 3303 1175 3120 767 
Q 2938 359 2589 142 
Q 2241 -75 1856 -75 
Q 1575 -75 1351 44 
Q 1128 163 984 344 
L 984 -1272 
L 422 -1272 
z
M 931 1641 
Q 931 1000 1190 694 
Q 1450 388 1819 388 
Q 2194 388 2461 705 
Q 2728 1022 2728 1688 
Q 2728 2322 2467 2637 
Q 2206 2953 1844 2953 
Q 1484 2953 1207 2617 
Q 931 2281 931 1641 
z
" transform="scale(0.015625)"/>
      </defs>
      <use xlink:href="#ArialMT-22"/>
      <use xlink:href="#ArialMT-45" x="35.498047"/>
      <use xlink:href="#ArialMT-70" x="102.197266"/>
      <use xlink:href="#ArialMT-73" x="157.8125"/>
      <use xlink:href="#ArialMT-74" x="207.8125"/>
      <use xlink:href="#ArialMT-65" x="235.595703"/>
      <use xlink:href="#ArialMT-69" x="291.210938"/>
      <use xlink:href="#ArialMT-6e" x="313.427734"/>
      <use xlink:href="#ArialMT-22" x="369.042969"/>
     </g>
    </g>
   </g>
  </g>
  <g id="axes_2">
   <g id="patch_7">
    <path d="M 48.929688 794.733653 
L 1137.943438 794.733653 
L 1137.943438 453.941201 
L 48.929688 453.941201 
L 48.929688 794.733653 
z
" style="fill: none"/>
   </g>
   <g id="matplotlib.axis_3">
    <g id="xtick_8">
     <g id="line2d_35">
      <path d="M 150.147383 794.733653 
L 150.147383 453.941201 
" clip-path="url(#p5f231a7b60)" style="fill: none; stroke: #ffffff; stroke-linecap: round"/>
     </g>
     <g id="line2d_36"/>
     <g id="text_21">
      <!-- 2025-01 -->
      <g style="fill: #262626" transform="translate(122.794504 832.742495) rotate(-45) scale(0.1 -0.1)">
       <use xlink:href="#ArialMT-32"/>
       <use xlink:href="#ArialMT-30" x="55.615234"/>
       <use xlink:href="#ArialMT-32" x="111.230469"/>
       <use xlink:href="#ArialMT-35" x="166.845703"/>
       <use xlink:href="#ArialMT-2d" x="222.460938"/>
       <use xlink:href="#ArialMT-30" x="255.761719"/>
       <use xlink:href="#ArialMT-31" x="311.376953"/>
      </g>
     </g>
    </g>
    <g id="xtick_9">
     <g id="line2d_37">
      <path d="M 297.910443 794.733653 
L 297.910443 453.941201 
" clip-path="url(#p5f231a7b60)" style="fill: none; stroke: #ffffff; stroke-linecap: round"/>
     </g>
     <g id="line2d_38"/>
     <g id="text_22">
      <!-- 2025-02 -->
      <g style="fill: #262626" transform="translate(270.557564 832.742495) rotate(-45) scale(0.1 -0.1)">
       <use xlink:href="#ArialMT-32"/>
       <use xlink:href="#ArialMT-30" x="55.615234"/>
       <use xlink:href="#ArialMT-32" x="111.230469"/>
       <use xlink:href="#ArialMT-35" x="166.845703"/>
       <use xlink:href="#ArialMT-2d" x="222.460938"/>
       <use xlink:href="#ArialMT-30" x="255.761719"/>
       <use xlink:href="#ArialMT-32" x="311.376953"/>
      </g>
     </g>
    </g>
    <g id="xtick_10">
     <g id="line2d_39">
      <path d="M 445.673503 794.733653 
L 445.673503 453.941201 
" clip-path="url(#p5f231a7b60)" style="fill: none; stroke: #ffffff; stroke-linecap: round"/>
     </g>
     <g id="line2d_40"/>
     <g id="text_23">
      <!-- 2025-03 -->
      <g style="fill: #262626" transform="translate(418.320624 832.742495) rotate(-45) scale(0.1 -0.1)">
       <use xlink:href="#ArialMT-32"/>
       <use xlink:href="#ArialMT-30" x="55.615234"/>
       <use xlink:href="#ArialMT-32" x="111.230469"/>
       <use xlink:href="#ArialMT-35" x="166.845703"/>
       <use xlink:href="#ArialMT-2d" x="222.460938"/>
       <use xlink:href="#ArialMT-30" x="255.761719"/>
       <use xlink:href="#ArialMT-33" x="311.376953"/>
      </g>
     </g>
    </g>
    <g id="xtick_11">
     <g id="line2d_41">
      <path d="M 593.436563 794.733653 
L 593.436563 453.941201 
" clip-path="url(#p5f231a7b60)" style="fill: none; stroke: #ffffff; stroke-linecap: round"/>
     </g>
     <g id="line2d_42"/>
     <g id="text_24">
      <!-- 2025-04 -->
      <g style="fill: #262626" transform="translate(566.083683 832.742495) rotate(-45) scale(0.1 -0.1)">
       <use xlink:href="#ArialMT-32"/>
       <use xlink:href="#ArialMT-30" x="55.615234"/>
       <use xlink:href="#ArialMT-32" x="111.230469"/>
       <use xlink:href="#ArialMT-35" x="166.845703"/>
       <use xlink:href="#ArialMT-2d" x="222.460938"/>
       <use xlink:href="#ArialMT-30" x="255.761719"/>
       <use xlink:href="#ArialMT-34" x="311.376953"/>
      </g>
     </g>
    </g>
    <g id="xtick_12">
     <g id="line2d_43">
      <path d="M 741.199622 794.733653 
L 741.199622 453.941201 
" clip-path="url(#p5f231a7b60)" style="fill: none; stroke: #ffffff; stroke-linecap: round"/>
     </g>
     <g id="line2d_44"/>
     <g id="text_25">
      <!-- 2025-05 -->
      <g style="fill: #262626" transform="translate(713.846743 832.742495) rotate(-45) scale(0.1 -0.1)">
       <use xlink:href="#ArialMT-32"/>
       <use xlink:href="#ArialMT-30" x="55.615234"/>
       <use xlink:href="#ArialMT-32" x="111.230469"/>
       <use xlink:href="#ArialMT-35" x="166.845703"/>
       <use xlink:href="#ArialMT-2d" x="222.460938"/>
       <use xlink:href="#ArialMT-30" x="255.761719"/>
       <use xlink:href="#ArialMT-35" x="311.376953"/>
      </g>
     </g>
    </g>
    <g id="xtick_13">
     <g id="line2d_45">
      <path d="M 888.962682 794.733653 
L 888.962682 453.941201 
" clip-path="url(#p5f231a7b60)" style="fill: none; stroke: #ffffff; stroke-linecap: round"/>
     </g>
     <g id="line2d_46"/>
     <g id="text_26">
      <!-- 2025-06 -->
      <g style="fill: #262626" transform="translate(861.609803 832.742495) rotate(-45) scale(0.1 -0.1)">
       <use xlink:href="#ArialMT-32"/>
       <use xlink:href="#ArialMT-30" x="55.615234"/>
       <use xlink:href="#ArialMT-32" x="111.230469"/>
       <use xlink:href="#ArialMT-35" x="166.845703"/>
       <use xlink:href="#ArialMT-2d" x="222.460938"/>
       <use xlink:href="#ArialMT-30" x="255.761719"/>
       <use xlink:href="#ArialMT-36" x="311.376953"/>
      </g>
     </g>
    </g>
    <g id="xtick_14">
     <g id="line2d_47">
      <path d="M 1036.725742 794.733653 
L 1036.725742 453.941201 
" clip-path="url(#p5f231a7b60)" style="fill: none; stroke: #ffffff; stroke-linecap: round"/>
     </g>
     <g id="line2d_48"/>
     <g id="text_27">
      <!-- 2025-07 -->
      <g style="fill: #262626" transform="translate(1009.372863 832.742495) rotate(-45) scale(0.1 -0.1)">
       <use xlink:href="#ArialMT-32"/>
       <use xlink:href="#ArialMT-30" x="55.615234"/>
       <use xlink:href="#ArialMT-32" x="111.230469"/>
       <use xlink:href="#ArialMT-35" x="166.845703"/>
       <use xlink:href="#ArialMT-2d" x="222.460938"/>
       <use xlink:href="#ArialMT-30" x="255.761719"/>
       <use xlink:href="#ArialMT-37" x="311.376953"/>
      </g>
     </g>
    </g>
    <g id="text_28">
     <!-- Month -->
     <g style="fill: #262626" transform="translate(576.762187 846.737244) scale(0.12 -0.12)">
      <defs>
       <path id="ArialMT-4d" d="M 475 0 
L 475 4581 
L 1388 4581 
L 2472 1338 
Q 2622 884 2691 659 
Q 2769 909 2934 1394 
L 4031 4581 
L 4847 4581 
L 4847 0 
L 4263 0 
L 4263 3834 
L 2931 0 
L 2384 0 
L 1059 3900 
L 1059 0 
L 475 0 
z
" transform="scale(0.015625)"/>
       <path id="ArialMT-68" d="M 422 0 
L 422 4581 
L 984 4581 
L 984 2938 
Q 1378 3394 1978 3394 
Q 2347 3394 2619 3248 
Q 2891 3103 3008 2847 
Q 3125 2591 3125 2103 
L 3125 0 
L 2563 0 
L 2563 2103 
Q 2563 2525 2380 2717 
Q 2197 2909 1863 2909 
Q 1613 2909 1392 2779 
Q 1172 2650 1078 2428 
Q 984 2206 984 1816 
L 984 0 
L 422 0 
z
" transform="scale(0.015625)"/>
      </defs>
      <use xlink:href="#ArialMT-4d"/>
      <use xlink:href="#ArialMT-6f" x="83.300781"/>
      <use xlink:href="#ArialMT-6e" x="138.916016"/>
      <use xlink:href="#ArialMT-74" x="194.53125"/>
      <use xlink:href="#ArialMT-68" x="222.314453"/>
     </g>
    </g>
   </g>
   <g id="matplotlib.axis_4">
    <g id="ytick_9">
     <g id="line2d_49">
      <path d="M 48.929688 794.733653 
L 1137.943438 794.733653 
" clip-path="url(#p5f231a7b60)" style="fill: none; stroke: #808080; stroke-opacity: 0.3; stroke-linecap: round"/>
     </g>
     <g id="line2d_50"/>
     <g id="text_29">
      <!-- 0.0 -->
      <g style="fill: #262626" transform="translate(28.029688 798.312559) scale(0.1 -0.1)">
       <defs>
        <path id="ArialMT-2e" d="M 581 0 
L 581 641 
L 1222 641 
L 1222 0 
L 581 0 
z
" transform="scale(0.015625)"/>
       </defs>
       <use xlink:href="#ArialMT-30"/>
       <use xlink:href="#ArialMT-2e" x="55.615234"/>
       <use xlink:href="#ArialMT-30" x="83.398438"/>
      </g>
     </g>
    </g>
    <g id="ytick_10">
     <g id="line2d_51">
      <path d="M 48.929688 754.163123 
L 1137.943438 754.163123 
" clip-path="url(#p5f231a7b60)" style="fill: none; stroke: #808080; stroke-opacity: 0.3; stroke-linecap: round"/>
     </g>
     <g id="line2d_52"/>
     <g id="text_30">
      <!-- 2.5 -->
      <g style="fill: #262626" transform="translate(28.029688 757.742029) scale(0.1 -0.1)">
       <use xlink:href="#ArialMT-32"/>
       <use xlink:href="#ArialMT-2e" x="55.615234"/>
       <use xlink:href="#ArialMT-35" x="83.398438"/>
      </g>
     </g>
    </g>
    <g id="ytick_11">
     <g id="line2d_53">
      <path d="M 48.929688 713.592593 
L 1137.943438 713.592593 
" clip-path="url(#p5f231a7b60)" style="fill: none; stroke: #808080; stroke-opacity: 0.3; stroke-linecap: round"/>
     </g>
     <g id="line2d_54"/>
     <g id="text_31">
      <!-- 5.0 -->
      <g style="fill: #262626" transform="translate(28.029688 717.171499) scale(0.1 -0.1)">
       <use xlink:href="#ArialMT-35"/>
       <use xlink:href="#ArialMT-2e" x="55.615234"/>
       <use xlink:href="#ArialMT-30" x="83.398438"/>
      </g>
     </g>
    </g>
    <g id="ytick_12">
     <g id="line2d_55">
      <path d="M 48.929688 673.022063 
L 1137.943438 673.022063 
" clip-path="url(#p5f231a7b60)" style="fill: none; stroke: #808080; stroke-opacity: 0.3; stroke-linecap: round"/>
     </g>
     <g id="line2d_56"/>
     <g id="text_32">
      <!-- 7.5 -->
      <g style="fill: #262626" transform="translate(28.029688 676.600969) scale(0.1 -0.1)">
       <use xlink:href="#ArialMT-37"/>
       <use xlink:href="#ArialMT-2e" x="55.615234"/>
       <use xlink:href="#ArialMT-35" x="83.398438"/>
      </g>
     </g>
    </g>
    <g id="ytick_13">
     <g id="line2d_57">
      <path d="M 48.929688 632.451533 
L 1137.943438 632.451533 
" clip-path="url(#p5f231a7b60)" style="fill: none; stroke: #808080; stroke-opacity: 0.3; stroke-linecap: round"/>
     </g>
     <g id="line2d_58"/>
     <g id="text_33">
      <!-- 10.0 -->
      <g style="fill: #262626" transform="translate(22.46875 636.030439) scale(0.1 -0.1)">
       <use xlink:href="#ArialMT-31"/>
       <use xlink:href="#ArialMT-30" x="55.615234"/>
       <use xlink:href="#ArialMT-2e" x="111.230469"/>
       <use xlink:href="#ArialMT-30" x="139.013672"/>
      </g>
     </g>
    </g>
    <g id="ytick_14">
     <g id="line2d_59">
      <path d="M 48.929688 591.881003 
L 1137.943438 591.881003 
" clip-path="url(#p5f231a7b60)" style="fill: none; stroke: #808080; stroke-opacity: 0.3; stroke-linecap: round"/>
     </g>
     <g id="line2d_60"/>
     <g id="text_34">
      <!-- 12.5 -->
      <g style="fill: #262626" transform="translate(22.46875 595.459909) scale(0.1 -0.1)">
       <use xlink:href="#ArialMT-31"/>
       <use xlink:href="#ArialMT-32" x="55.615234"/>
       <use xlink:href="#ArialMT-2e" x="111.230469"/>
       <use xlink:href="#ArialMT-35" x="139.013672"/>
      </g>
     </g>
    </g>
    <g id="ytick_15">
     <g id="line2d_61">
      <path d="M 48.929688 551.310473 
L 1137.943438 551.310473 
" clip-path="url(#p5f231a7b60)" style="fill: none; stroke: #808080; stroke-opacity: 0.3; stroke-linecap: round"/>
     </g>
     <g id="line2d_62"/>
     <g id="text_35">
      <!-- 15.0 -->
      <g style="fill: #262626" transform="translate(22.46875 554.889379) scale(0.1 -0.1)">
       <use xlink:href="#ArialMT-31"/>
       <use xlink:href="#ArialMT-35" x="55.615234"/>
       <use xlink:href="#ArialMT-2e" x="111.230469"/>
       <use xlink:href="#ArialMT-30" x="139.013672"/>
      </g>
     </g>
    </g>
    <g id="ytick_16">
     <g id="line2d_63">
      <path d="M 48.929688 510.739943 
L 1137.943438 510.739943 
" clip-path="url(#p5f231a7b60)" style="fill: none; stroke: #808080; stroke-opacity: 0.3; stroke-linecap: round"/>
     </g>
     <g id="line2d_64"/>
     <g id="text_36">
      <!-- 17.5 -->
      <g style="fill: #262626" transform="translate(22.46875 514.318849) scale(0.1 -0.1)">
       <use xlink:href="#ArialMT-31"/>
       <use xlink:href="#ArialMT-37" x="55.615234"/>
       <use xlink:href="#ArialMT-2e" x="111.230469"/>
       <use xlink:href="#ArialMT-35" x="139.013672"/>
      </g>
     </g>
    </g>
    <g id="ytick_17">
     <g id="line2d_65">
      <path d="M 48.929688 470.169413 
L 1137.943438 470.169413 
" clip-path="url(#p5f231a7b60)" style="fill: none; stroke: #808080; stroke-opacity: 0.3; stroke-linecap: round"/>
     </g>
     <g id="line2d_66"/>
     <g id="text_37">
      <!-- 20.0 -->
      <g style="fill: #262626" transform="translate(22.46875 473.74832) scale(0.1 -0.1)">
       <use xlink:href="#ArialMT-32"/>
       <use xlink:href="#ArialMT-30" x="55.615234"/>
       <use xlink:href="#ArialMT-2e" x="111.230469"/>
       <use xlink:href="#ArialMT-30" x="139.013672"/>
      </g>
     </g>
    </g>
    <g id="text_38">
     <!-- Monthly Occurrences -->
     <g style="fill: #262626" transform="translate(15.943125 681.020552) rotate(-90) scale(0.12 -0.12)">
      <use xlink:href="#ArialMT-4d"/>
      <use xlink:href="#ArialMT-6f" x="83.300781"/>
      <use xlink:href="#ArialMT-6e" x="138.916016"/>
      <use xlink:href="#ArialMT-74" x="194.53125"/>
      <use xlink:href="#ArialMT-68" x="222.314453"/>
      <use xlink:href="#ArialMT-6c" x="277.929688"/>
      <use xlink:href="#ArialMT-79" x="300.146484"/>
      <use xlink:href="#ArialMT-20" x="350.146484"/>
      <use xlink:href="#ArialMT-4f" x="377.929688"/>
      <use xlink:href="#ArialMT-63" x="455.712891"/>
      <use xlink:href="#ArialMT-63" x="505.712891"/>
      <use xlink:href="#ArialMT-75" x="555.712891"/>
      <use xlink:href="#ArialMT-72" x="611.328125"/>
      <use xlink:href="#ArialMT-72" x="644.628906"/>
      <use xlink:href="#ArialMT-65" x="677.929688"/>
      <use xlink:href="#ArialMT-6e" x="733.544922"/>
      <use xlink:href="#ArialMT-63" x="789.160156"/>
      <use xlink:href="#ArialMT-65" x="839.160156"/>
      <use xlink:href="#ArialMT-73" x="894.775391"/>
     </g>
    </g>
   </g>
   <g id="patch_8">
    <path d="M 98.430313 794.733653 
L 150.147383 794.733653 
L 150.147383 616.223321 
L 98.430313 616.223321 
z
" clip-path="url(#p5f231a7b60)" style="fill: #ff6b6b; opacity: 0.8"/>
   </g>
   <g id="patch_9">
    <path d="M 246.193372 794.733653 
L 297.910443 794.733653 
L 297.910443 502.625837 
L 246.193372 502.625837 
z
" clip-path="url(#p5f231a7b60)" style="fill: #ff6b6b; opacity: 0.8"/>
   </g>
   <g id="patch_10">
    <path d="M 393.956432 794.733653 
L 445.673503 794.733653 
L 445.673503 535.082261 
L 393.956432 535.082261 
z
" clip-path="url(#p5f231a7b60)" style="fill: #ff6b6b; opacity: 0.8"/>
   </g>
   <g id="patch_11">
    <path d="M 541.719492 794.733653 
L 593.436563 794.733653 
L 593.436563 470.169413 
L 541.719492 470.169413 
z
" clip-path="url(#p5f231a7b60)" style="fill: #ff6b6b; opacity: 0.8"/>
   </g>
   <g id="patch_12">
    <path d="M 689.482551 794.733653 
L 741.199622 794.733653 
L 741.199622 535.082261 
L 689.482551 535.082261 
z
" clip-path="url(#p5f231a7b60)" style="fill: #ff6b6b; opacity: 0.8"/>
   </g>
   <g id="patch_13">
    <path d="M 837.245611 794.733653 
L 888.962682 794.733653 
L 888.962682 632.451533 
L 837.245611 632.451533 
z
" clip-path="url(#p5f231a7b60)" style="fill: #ff6b6b; opacity: 0.8"/>
   </g>
   <g id="patch_14">
    <path d="M 985.008671 794.733653 
L 1036.725742 794.733653 
L 1036.725742 713.592593 
L 985.008671 713.592593 
z
" clip-path="url(#p5f231a7b60)" style="fill: #ff6b6b; opacity: 0.8"/>
   </g>
   <g id="patch_15">
    <path d="M 150.147383 794.733653 
L 201.864454 794.733653 
L 201.864454 794.733653 
L 150.147383 794.733653 
z
" clip-path="url(#p5f231a7b60)" style="fill: #4ecdc4; opacity: 0.8"/>
   </g>
   <g id="patch_16">
    <path d="M 297.910443 794.733653 
L 349.627514 794.733653 
L 349.627514 794.733653 
L 297.910443 794.733653 
z
" clip-path="url(#p5f231a7b60)" style="fill: #4ecdc4; opacity: 0.8"/>
   </g>
   <g id="patch_17">
    <path d="M 445.673503 794.733653 
L 497.390574 794.733653 
L 497.390574 794.733653 
L 445.673503 794.733653 
z
" clip-path="url(#p5f231a7b60)" style="fill: #4ecdc4; opacity: 0.8"/>
   </g>
   <g id="patch_18">
    <path d="M 593.436563 794.733653 
L 645.153633 794.733653 
L 645.153633 794.733653 
L 593.436563 794.733653 
z
" clip-path="url(#p5f231a7b60)" style="fill: #4ecdc4; opacity: 0.8"/>
   </g>
   <g id="patch_19">
    <path d="M 741.199622 794.733653 
L 792.916693 794.733653 
L 792.916693 794.733653 
L 741.199622 794.733653 
z
" clip-path="url(#p5f231a7b60)" style="fill: #4ecdc4; opacity: 0.8"/>
   </g>
   <g id="patch_20">
    <path d="M 888.962682 794.733653 
L 940.679753 794.733653 
L 940.679753 794.733653 
L 888.962682 794.733653 
z
" clip-path="url(#p5f231a7b60)" style="fill: #4ecdc4; opacity: 0.8"/>
   </g>
   <g id="patch_21">
    <path d="M 1036.725742 794.733653 
L 1088.442813 794.733653 
L 1088.442813 470.169413 
L 1036.725742 470.169413 
z
" clip-path="url(#p5f231a7b60)" style="fill: #4ecdc4; opacity: 0.8"/>
   </g>
   <g id="patch_22">
    <path d="M 48.929688 794.733653 
L 48.929688 453.941201 
" style="fill: none"/>
   </g>
   <g id="patch_23">
    <path d="M 1137.943438 794.733653 
L 1137.943438 453.941201 
" style="fill: none"/>
   </g>
   <g id="patch_24">
    <path d="M 48.929688 794.733653 
L 1137.943438 794.733653 
" style="fill: none"/>
   </g>
   <g id="patch_25">
    <path d="M 48.929688 453.941201 
L 1137.943438 453.941201 
" style="fill: none"/>
   </g>
   <g id="text_39">
    <!-- 11 -->
    <g style="fill: #262626" transform="translate(119.00291 609.38142) scale(0.1 -0.1)">
     <defs>
      <path id="Arial-BoldMT-31" d="M 2519 0 
L 1641 0 
L 1641 3309 
Q 1159 2859 506 2644 
L 506 3441 
Q 850 3553 1253 3867 
Q 1656 4181 1806 4600 
L 2519 4600 
L 2519 0 
z
" transform="scale(0.015625)"/>
     </defs>
     <use xlink:href="#Arial-BoldMT-31"/>
     <use xlink:href="#Arial-BoldMT-31" x="50.115234"/>
    </g>
   </g>
   <g id="text_40">
    <!-- 18 -->
    <g style="fill: #262626" transform="translate(266.49097 495.783936) scale(0.1 -0.1)">
     <defs>
      <path id="Arial-BoldMT-38" d="M 1025 2472 
Q 684 2616 529 2867 
Q 375 3119 375 3419 
Q 375 3931 733 4265 
Q 1091 4600 1750 4600 
Q 2403 4600 2764 4265 
Q 3125 3931 3125 3419 
Q 3125 3100 2959 2851 
Q 2794 2603 2494 2472 
Q 2875 2319 3073 2025 
Q 3272 1731 3272 1347 
Q 3272 713 2867 316 
Q 2463 -81 1791 -81 
Q 1166 -81 750 247 
Q 259 634 259 1309 
Q 259 1681 443 1992 
Q 628 2303 1025 2472 
z
M 1206 3356 
Q 1206 3094 1354 2947 
Q 1503 2800 1750 2800 
Q 2000 2800 2150 2948 
Q 2300 3097 2300 3359 
Q 2300 3606 2151 3754 
Q 2003 3903 1759 3903 
Q 1506 3903 1356 3753 
Q 1206 3603 1206 3356 
z
M 1125 1394 
Q 1125 1031 1311 828 
Q 1497 625 1775 625 
Q 2047 625 2225 820 
Q 2403 1016 2403 1384 
Q 2403 1706 2222 1901 
Q 2041 2097 1763 2097 
Q 1441 2097 1283 1875 
Q 1125 1653 1125 1394 
z
" transform="scale(0.015625)"/>
     </defs>
     <use xlink:href="#Arial-BoldMT-31"/>
     <use xlink:href="#Arial-BoldMT-38" x="55.615234"/>
    </g>
   </g>
   <g id="text_41">
    <!-- 16 -->
    <g style="fill: #262626" transform="translate(414.25403 528.24036) scale(0.1 -0.1)">
     <defs>
      <path id="Arial-BoldMT-36" d="M 3247 3459 
L 2397 3366 
Q 2366 3628 2234 3753 
Q 2103 3878 1894 3878 
Q 1616 3878 1423 3628 
Q 1231 3378 1181 2588 
Q 1509 2975 1997 2975 
Q 2547 2975 2939 2556 
Q 3331 2138 3331 1475 
Q 3331 772 2918 347 
Q 2506 -78 1859 -78 
Q 1166 -78 719 461 
Q 272 1000 272 2228 
Q 272 3488 737 4044 
Q 1203 4600 1947 4600 
Q 2469 4600 2811 4308 
Q 3153 4016 3247 3459 
z
M 1256 1544 
Q 1256 1116 1453 883 
Q 1650 650 1903 650 
Q 2147 650 2309 840 
Q 2472 1031 2472 1466 
Q 2472 1913 2297 2120 
Q 2122 2328 1859 2328 
Q 1606 2328 1431 2129 
Q 1256 1931 1256 1544 
z
" transform="scale(0.015625)"/>
     </defs>
     <use xlink:href="#Arial-BoldMT-31"/>
     <use xlink:href="#Arial-BoldMT-36" x="55.615234"/>
    </g>
   </g>
   <g id="text_42">
    <!-- 20 -->
    <g style="fill: #262626" transform="translate(562.01709 463.327512) scale(0.1 -0.1)">
     <defs>
      <path id="Arial-BoldMT-32" d="M 3238 816 
L 3238 0 
L 159 0 
Q 209 463 459 877 
Q 709 1291 1447 1975 
Q 2041 2528 2175 2725 
Q 2356 2997 2356 3263 
Q 2356 3556 2198 3714 
Q 2041 3872 1763 3872 
Q 1488 3872 1325 3706 
Q 1163 3541 1138 3156 
L 263 3244 
Q 341 3969 753 4284 
Q 1166 4600 1784 4600 
Q 2463 4600 2850 4234 
Q 3238 3869 3238 3325 
Q 3238 3016 3127 2736 
Q 3016 2456 2775 2150 
Q 2616 1947 2200 1565 
Q 1784 1184 1673 1059 
Q 1563 934 1494 816 
L 3238 816 
z
" transform="scale(0.015625)"/>
      <path id="Arial-BoldMT-30" d="M 1756 4600 
Q 2422 4600 2797 4125 
Q 3244 3563 3244 2259 
Q 3244 959 2794 391 
Q 2422 -78 1756 -78 
Q 1088 -78 678 436 
Q 269 950 269 2269 
Q 269 3563 719 4131 
Q 1091 4600 1756 4600 
z
M 1756 3872 
Q 1597 3872 1472 3770 
Q 1347 3669 1278 3406 
Q 1188 3066 1188 2259 
Q 1188 1453 1269 1151 
Q 1350 850 1473 750 
Q 1597 650 1756 650 
Q 1916 650 2041 751 
Q 2166 853 2234 1116 
Q 2325 1453 2325 2259 
Q 2325 3066 2244 3367 
Q 2163 3669 2039 3770 
Q 1916 3872 1756 3872 
z
" transform="scale(0.015625)"/>
     </defs>
     <use xlink:href="#Arial-BoldMT-32"/>
     <use xlink:href="#Arial-BoldMT-30" x="55.615234"/>
    </g>
   </g>
   <g id="text_43">
    <!-- 16 -->
    <g style="fill: #262626" transform="translate(709.780149 528.24036) scale(0.1 -0.1)">
     <use xlink:href="#Arial-BoldMT-31"/>
     <use xlink:href="#Arial-BoldMT-36" x="55.615234"/>
    </g>
   </g>
   <g id="text_44">
    <!-- 10 -->
    <g style="fill: #262626" transform="translate(857.543209 625.609632) scale(0.1 -0.1)">
     <use xlink:href="#Arial-BoldMT-31"/>
     <use xlink:href="#Arial-BoldMT-30" x="55.615234"/>
    </g>
   </g>
   <g id="text_45">
    <!-- 5 -->
    <g style="fill: #262626" transform="translate(1008.086737 706.750692) scale(0.1 -0.1)">
     <defs>
      <path id="Arial-BoldMT-35" d="M 284 1178 
L 1159 1269 
Q 1197 972 1381 798 
Q 1566 625 1806 625 
Q 2081 625 2272 848 
Q 2463 1072 2463 1522 
Q 2463 1944 2273 2155 
Q 2084 2366 1781 2366 
Q 1403 2366 1103 2031 
L 391 2134 
L 841 4519 
L 3163 4519 
L 3163 3697 
L 1506 3697 
L 1369 2919 
Q 1663 3066 1969 3066 
Q 2553 3066 2959 2641 
Q 3366 2216 3366 1538 
Q 3366 972 3038 528 
Q 2591 -78 1797 -78 
Q 1163 -78 763 262 
Q 363 603 284 1178 
z
" transform="scale(0.015625)"/>
     </defs>
     <use xlink:href="#Arial-BoldMT-35"/>
    </g>
   </g>
   <g id="text_46">
    <!-- 20 -->
    <g style="fill: #262626" transform="translate(1057.02334 463.327512) scale(0.1 -0.1)">
     <use xlink:href="#Arial-BoldMT-32"/>
     <use xlink:href="#Arial-BoldMT-30" x="55.615234"/>
    </g>
   </g>
   <g id="text_47">
    <!-- Monthly Word Usage Over Time -->
    <g style="fill: #262626" transform="translate(472.816563 433.941201) scale(0.16 -0.16)">
     <defs>
      <path id="Arial-BoldMT-4d" d="M 453 0 
L 453 4581 
L 1838 4581 
L 2669 1456 
L 3491 4581 
L 4878 4581 
L 4878 0 
L 4019 0 
L 4019 3606 
L 3109 0 
L 2219 0 
L 1313 3606 
L 1313 0 
L 453 0 
z
" transform="scale(0.015625)"/>
      <path id="Arial-BoldMT-68" d="M 1334 4581 
L 1334 2897 
Q 1759 3394 2350 3394 
Q 2653 3394 2897 3281 
Q 3141 3169 3264 2994 
Q 3388 2819 3433 2606 
Q 3478 2394 3478 1947 
L 3478 0 
L 2600 0 
L 2600 1753 
Q 2600 2275 2550 2415 
Q 2500 2556 2373 2639 
Q 2247 2722 2056 2722 
Q 1838 2722 1666 2615 
Q 1494 2509 1414 2295 
Q 1334 2081 1334 1663 
L 1334 0 
L 456 0 
L 456 4581 
L 1334 4581 
z
" transform="scale(0.015625)"/>
     </defs>
     <use xlink:href="#Arial-BoldMT-4d"/>
     <use xlink:href="#Arial-BoldMT-6f" x="83.300781"/>
     <use xlink:href="#Arial-BoldMT-6e" x="144.384766"/>
     <use xlink:href="#Arial-BoldMT-74" x="205.46875"/>
     <use xlink:href="#Arial-BoldMT-68" x="238.769531"/>
     <use xlink:href="#Arial-BoldMT-6c" x="299.853516"/>
     <use xlink:href="#Arial-BoldMT-79" x="327.636719"/>
     <use xlink:href="#Arial-BoldMT-20" x="383.251953"/>
     <use xlink:href="#Arial-BoldMT-57" x="411.035156"/>
     <use xlink:href="#Arial-BoldMT-6f" x="503.669922"/>
     <use xlink:href="#Arial-BoldMT-72" x="564.753906"/>
     <use xlink:href="#Arial-BoldMT-64" x="603.669922"/>
     <use xlink:href="#Arial-BoldMT-20" x="664.753906"/>
     <use xlink:href="#Arial-BoldMT-55" x="692.537109"/>
     <use xlink:href="#Arial-BoldMT-73" x="764.753906"/>
     <use xlink:href="#Arial-BoldMT-61" x="820.369141"/>
     <use xlink:href="#Arial-BoldMT-67" x="875.984375"/>
     <use xlink:href="#Arial-BoldMT-65" x="937.068359"/>
     <use xlink:href="#Arial-BoldMT-20" x="992.683594"/>
     <use xlink:href="#Arial-BoldMT-4f" x="1020.466797"/>
     <use xlink:href="#Arial-BoldMT-76" x="1098.25"/>
     <use xlink:href="#Arial-BoldMT-65" x="1153.865234"/>
     <use xlink:href="#Arial-BoldMT-72" x="1209.480469"/>
     <use xlink:href="#Arial-BoldMT-20" x="1248.396484"/>
     <use xlink:href="#Arial-BoldMT-54" x="1276.179688"/>
     <use xlink:href="#Arial-BoldMT-69" x="1335.513672"/>
     <use xlink:href="#Arial-BoldMT-6d" x="1363.296875"/>
     <use xlink:href="#Arial-BoldMT-65" x="1452.212891"/>
    </g>
   </g>
   <g id="legend_2">
    <g id="patch_26">
     <path d="M 57.929688 470.099014 
L 77.929688 470.099014 
L 77.929688 463.099014 
L 57.929688 463.099014 
z
" style="fill: #ff6b6b; opacity: 0.8"/>
    </g>
    <g id="text_48">
     <!-- "Joe" -->
     <g style="fill: #262626" transform="translate(85.929688 470.099014) scale(0.1 -0.1)">
      <use xlink:href="#ArialMT-22"/>
      <use xlink:href="#ArialMT-4a" x="35.498047"/>
      <use xlink:href="#ArialMT-6f" x="85.498047"/>
      <use xlink:href="#ArialMT-65" x="141.113281"/>
      <use xlink:href="#ArialMT-22" x="196.728516"/>
     </g>
    </g>
    <g id="patch_27">
     <path d="M 57.929688 484.244326 
L 77.929688 484.244326 
L 77.929688 477.244326 
L 57.929688 477.244326 
z
" style="fill: #4ecdc4; opacity: 0.8"/>
    </g>
    <g id="text_49">
     <!-- "Epstein" -->
     <g style="fill: #262626" transform="translate(85.929688 484.244326) scale(0.1 -0.1)">
      <use xlink:href="#ArialMT-22"/>
      <use xlink:href="#ArialMT-45" x="35.498047"/>
      <use xlink:href="#ArialMT-70" x="102.197266"/>
      <use xlink:href="#ArialMT-73" x="157.8125"/>
      <use xlink:href="#ArialMT-74" x="207.8125"/>
      <use xlink:href="#ArialMT-65" x="235.595703"/>
      <use xlink:href="#ArialMT-69" x="291.210938"/>
      <use xlink:href="#ArialMT-6e" x="313.427734"/>
      <use xlink:href="#ArialMT-22" x="369.042969"/>
     </g>
    </g>
   </g>
  </g>
 </g>
 <defs>
  <clipPath id="pc78ca46ac8">
   <rect x="48.929688" y="38.8475" width="1089.01375" height="340.792451"/>
  </clipPath>
  <clipPath id="p5f231a7b60">
   <rect x="48.929688" y="453.941201" width="1089.01375" height="340.792451"/>
  </clipPath>
 </defs>
</svg>
